<svg width="239" height="22" viewBox="0 0 239 22" fill="none" xmlns="http://www.w3.org/2000/svg">
<path fill-rule="evenodd" clip-rule="evenodd" d="M118.935 0.323242V2.08222C118.935 7.18236 114.801 11.3168 109.701 11.3168H9.43969C4.82529 11.3168 1.08457 15.0575 1.08457 19.672V21.4309H0.205078V19.672C0.205078 14.5718 4.33955 10.4373 9.43969 10.4373H109.701C114.316 10.4373 118.056 6.69662 118.056 2.08222V0.323242H118.935Z" fill="#002F6C" fill-opacity="0.2"/>
<path fill-rule="evenodd" clip-rule="evenodd" d="M118.057 0.323242V2.08222C118.057 7.18236 122.191 11.3168 127.291 11.3168H229.312C233.926 11.3168 237.667 15.0575 237.667 19.672V21.4309H238.546V19.672C238.546 14.5718 234.412 10.4373 229.312 10.4373H127.291C122.677 10.4373 118.936 6.69662 118.936 2.08222V0.323242H118.057Z" fill="#002F6C" fill-opacity="0.2"/>
<path fill-rule="evenodd" clip-rule="evenodd" d="M118.057 21.4309V0.323242H118.936V21.4309H118.057Z" fill="#002F6C" fill-opacity="0.2"/>
</svg>
