<svg width="1518" height="1407" viewBox="0 0 1518 1407" fill="none" xmlns="http://www.w3.org/2000/svg">
<path d="M805.94 958.703L805.939 957.122L805.874 822.173C805.874 746.545 787.581 693.328 757.725 649.242C727.854 605.135 686.396 570.144 639.99 530.977L639.99 530.977M805.94 958.703L639.99 530.977M805.94 958.703L806.849 957.409C864.56 875.17 887.309 782.221 887.374 645.308C887.374 553.69 821.593 491.028 752.115 424.845L751.912 424.652C718.85 393.175 685.274 361.195 659.957 325.713C634.647 290.241 617.615 251.298 617.615 205.903C617.615 169.966 617.681 140.992 617.746 118.195L617.749 117.147L616.933 117.803C547.212 173.831 505.114 240.368 499.644 305.726C494.37 368.608 523.193 428.472 585.042 483.663C604.171 500.751 622.379 516.129 639.99 530.977M805.94 958.703L640.312 530.595L639.99 530.977M1305.97 790.706L1306.46 790.671V791.071H1517.5V1025.45C1517.5 1085.04 1511.03 1152.31 1479.35 1217.59C1447.67 1282.87 1390.76 1346.19 1289.81 1397.85L1274.33 1405.75L1258.85 1397.85C1157.9 1346.19 1100.99 1282.87 1069.31 1217.59C1037.63 1152.31 1031.16 1085.04 1031.16 1025.45V965.243H1099.16V1025.45C1099.16 1079.26 1104.57 1133.94 1129.15 1185.78C1153.74 1237.62 1197.48 1286.58 1274.09 1328.96L1274.33 1329.1L1274.57 1328.96C1351.17 1286.61 1394.92 1237.66 1419.51 1185.8C1444.09 1133.96 1449.5 1079.26 1449.5 1025.45V859.557V859.057H1449H1308.83L1075.94 859.057H1032.74V791.071L1236.48 791.071H1237.09L1236.97 790.472C1222.92 720.913 1166.39 674.833 1090 674.833H955.415H954.927L954.915 675.32C950.581 846.827 907.508 958.917 806.21 1064.39L806.071 1064.54V1064.74V1101.86V1101.86V1101.86V1101.87V1101.87V1101.87V1101.88V1101.88V1101.88V1101.88V1101.89V1101.89V1101.89V1101.89V1101.9V1101.9V1101.9V1101.91V1101.91V1101.91V1101.91V1101.92V1101.92V1101.92V1101.92V1101.93V1101.93V1101.93V1101.93V1101.94V1101.94V1101.94V1101.95V1101.95V1101.95V1101.95V1101.96V1101.96V1101.96V1101.96V1101.97V1101.97V1101.97V1101.97V1101.98V1101.98V1101.98V1101.98V1101.99V1101.99V1101.99V1102V1102V1102V1102V1102.01V1102.01V1102.01V1102.01V1102.02V1102.02V1102.02V1102.02V1102.03V1102.03V1102.03V1102.03V1102.04V1102.04V1102.04V1102.04V1102.05V1102.05V1102.05V1102.06V1102.06V1102.06V1102.06V1102.07V1102.07V1102.07V1102.07V1102.08V1102.08V1102.08V1102.08V1102.09V1102.09V1102.09V1102.09V1102.1V1102.1V1102.1V1102.1V1102.11V1102.11V1102.11V1102.11V1102.12V1102.12V1102.12V1102.13V1102.13V1102.13V1102.13V1102.14V1102.14V1102.14V1102.14V1102.15V1102.15V1102.15V1102.15V1102.16V1102.16V1102.16V1102.16V1102.17V1102.17V1102.17V1102.17V1102.18V1102.18V1102.18V1102.18V1102.19V1102.19V1102.19V1102.19V1102.2V1102.2V1102.2V1102.2V1102.21V1102.21V1102.21V1102.21V1102.22V1102.22V1102.22V1102.22V1102.23V1102.23V1102.23V1102.23V1102.24V1102.24V1102.24V1102.25V1102.25V1102.25V1102.25V1102.26V1102.26V1102.26V1102.26V1102.27V1102.27V1102.27V1102.27V1102.28V1102.28V1102.28V1102.28V1102.29V1102.29V1102.29V1102.29V1102.3V1102.3V1102.3V1102.3V1102.31V1102.31V1102.31V1102.31V1102.32V1102.32V1102.32V1102.32V1102.33V1102.33V1102.33V1102.33V1102.34V1102.34V1102.34V1102.34V1102.35V1102.35V1102.35V1102.35V1102.36V1102.36V1102.36V1102.36V1102.37V1102.37V1102.37V1102.37V1102.38V1102.38V1102.38V1102.38V1102.39V1102.39V1102.39V1102.39V1102.4V1102.4V1102.4V1102.4V1102.41V1102.41V1102.41V1102.41V1102.42V1102.42V1102.42V1102.42V1102.43V1102.43V1102.43V1102.43V1102.44V1102.44V1102.44V1102.44V1102.45V1102.45V1102.45V1102.45V1102.46V1102.46V1102.46V1102.46V1102.47V1102.47V1102.47V1102.47V1102.48V1102.48V1102.48V1102.48V1102.49V1102.49V1102.49V1102.49V1102.5V1102.5V1102.5V1102.5V1102.51V1102.51V1102.51V1102.51V1102.52V1102.52V1102.52V1102.52V1102.53V1102.53V1102.53V1102.53V1102.54V1102.54V1102.54V1102.54V1102.55V1102.55V1102.55V1102.55V1102.56V1102.56V1102.56V1102.56V1102.57V1102.57V1102.57V1102.57V1102.58V1102.58V1102.58V1102.58V1102.59V1102.59V1102.59V1102.59V1102.6V1102.6V1102.6V1102.6V1102.61V1102.61V1102.61V1102.61V1102.62V1102.62V1102.62V1102.62V1102.63V1102.63V1102.63V1102.63V1102.64V1102.64V1102.64V1102.64V1102.65V1102.65V1102.65V1102.65V1102.66V1102.66V1102.66V1102.66V1102.67V1102.67V1102.67V1102.67V1102.68V1102.68V1102.68V1102.68V1102.69V1102.69V1102.69V1102.69V1102.7V1102.7V1102.7V1102.7V1102.71V1102.71V1102.71V1102.71V1102.72V1102.72V1102.72V1102.72V1102.73V1102.73V1102.73V1102.74V1102.74V1102.74V1102.74V1102.75V1102.75V1102.75V1102.75V1102.76V1102.76V1102.76V1102.76V1102.77V1102.77V1102.77V1102.77V1102.78V1102.78V1102.78V1102.78V1102.79V1102.79V1102.79V1102.79V1102.8V1102.8V1102.8V1102.8V1102.81V1102.81V1102.81V1102.81V1102.82V1102.82V1102.82V1102.82V1102.83V1102.83V1102.83V1102.83V1102.84V1102.84V1102.84V1102.84V1102.85V1102.85V1102.85V1102.85V1102.86V1102.86V1102.86V1102.86V1102.87V1102.87V1102.87V1102.87V1102.88V1102.88V1102.88V1102.89V1102.89V1102.89V1102.89V1102.9V1102.9V1102.9V1102.9V1102.91V1102.91V1102.91V1102.91V1102.92V1102.92V1102.92V1102.92V1102.93V1102.93V1102.93V1102.93V1102.94V1102.94V1102.94V1102.94V1102.95V1102.95V1102.95V1102.95V1102.96V1102.96V1102.96V1102.97V1102.97V1102.97V1102.97V1102.98V1102.98V1102.98V1102.98V1102.99V1102.99V1102.99V1102.99V1103V1103V1103V1103V1103.01V1103.01V1103.01V1103.01V1103.02V1103.02V1103.02V1103.03V1103.03V1103.03V1103.03V1103.04V1103.04V1103.04V1103.04V1103.05V1103.05V1103.05V1103.05V1103.06V1103.06V1103.06V1103.06V1103.07V1103.07V1103.07V1103.07V1103.08V1103.08V1103.08V1103.09V1103.09V1103.09V1103.09V1103.1V1103.1V1103.1V1103.1V1103.11V1103.11V1103.11V1103.11V1103.12V1103.12V1103.12V1103.13V1103.13V1103.13V1103.13V1103.14V1103.14V1103.14V1103.14V1103.15V1103.15V1103.15V1103.15V1103.16V1103.16V1103.16V1103.17V1103.17V1103.17V1103.17V1149.62V1150.09L806.533 1150.12C923.044 1158.97 1005.65 1247.71 1005.65 1367.68V1401.68H327.641C172.501 1401.68 46.2898 1275.49 46.2898 1120.39C46.2898 1038.67 84.5364 964.071 118.39 898.088L118.077 897.928L118.39 898.088L119.017 896.865C133.314 868.989 147.136 842.042 157.444 815.984L157.627 815.521L157.165 815.336C118.823 799.976 58.8914 767.839 26.4468 709.386C1.86962 665.124 -1.54829 615.516 1.38046 576.359C4.30839 537.214 13.5756 508.565 14.3277 506.243C14.3278 506.243 14.3279 506.243 14.328 506.242L24.1708 476.526L54.6057 483.907L54.6091 483.908L54.6094 483.908C56.9832 484.501 86.1878 491.801 120.957 510.013C155.75 528.238 196.07 557.368 220.68 601.596C259.289 671.196 245.597 754.012 237.257 788.548L237.255 788.556C226.494 836.378 202.41 883.428 178.943 929.102L179.388 929.33L178.943 929.102L178.8 929.382C147.118 991.157 114.29 1055.17 114.29 1120.39C114.29 1238 209.998 1333.69 327.641 1333.69H547.851H548.351V1333.19V1215.65C548.351 1104.18 457.778 1013.46 346.344 1013.19V945.205C495.275 945.475 616.352 1066.69 616.352 1215.65V1333.13V1333.63H616.852H933.926H934.537L934.416 1333.03C920.369 1263.47 863.837 1217.39 787.448 1217.39H738.201L738.136 1100.68V1100.67C737.444 1033.01 709.166 978.418 666.324 929.788C623.494 881.172 566.079 838.485 507.078 794.637L506.78 795.039L507.078 794.637C483.616 777.226 459.308 759.163 436.184 740.838C295.783 629.619 227.597 500.719 227.597 346.765C227.597 236.959 294.404 115.367 390.152 51.0024L389.948 50.6985L390.152 51.0023C473.47 -5.01181 571.078 -14.785 664.964 23.4563L955.375 141.787V343.374H887.374V187.836V187.499L887.063 187.373L686.501 105.641L685.817 105.362L685.813 106.102C685.681 130.281 685.615 163.198 685.615 205.903C685.615 236.835 698.776 264.797 719.486 292.223C740.186 319.636 768.467 346.563 798.778 375.422L798.8 375.444C864.078 437.618 936.88 507.083 952.292 606.49L952.358 606.913H952.786H1090C1204.76 606.913 1290.89 682.356 1305.97 790.706ZM72.0121 562.001L71.4147 561.741L71.3183 562.385C66.7137 593.164 65.1163 639.029 85.8988 676.43C106.681 713.829 146.435 736.749 175.049 749.179L175.646 749.438L175.743 748.794C180.347 718.015 181.945 672.084 161.162 634.684C140.511 597.481 100.626 574.43 72.0121 562.001ZM547.487 740.12L547.786 739.719L547.488 740.12C616.763 791.573 687.15 843.961 737.043 908.612L737.94 909.774L737.939 908.306L737.873 822.173C737.873 762.37 725.285 721.796 701.24 686.532C677.216 651.298 641.769 621.391 596.146 582.905C594.643 581.633 593.134 580.357 591.621 579.078C575.079 565.091 557.95 550.608 539.773 534.361L539.773 534.361C441.655 446.829 426.921 358.62 431.837 300.028L431.837 300.028C438.657 218.27 487.324 136.915 568.083 69.828L569.03 69.0406L567.802 68.9449C508.58 64.3347 460.825 85.2802 427.971 107.398C349.971 159.847 295.466 258.285 295.466 346.765C295.466 478.611 355.296 590.108 478.277 687.551C499.523 704.468 522.2 721.324 544.254 737.717L547.487 740.12Z" stroke="#002F6C"/>
</svg>
