<svg width="1440" height="829" viewBox="0 0 1440 829" fill="none" xmlns="http://www.w3.org/2000/svg">
<path d="M1268.97 461.706L1269.46 461.671V462.071H1480.5V696.45C1480.5 756.04 1474.03 823.312 1442.35 888.594C1410.67 953.867 1353.76 1017.19 1252.81 1068.85L1237.33 1076.75L1221.85 1068.85C1120.9 1017.19 1063.99 953.867 1032.31 888.594C1000.63 823.312 994.158 756.04 994.158 696.45V636.243L1062.16 636.243V696.45C1062.16 750.255 1067.57 804.939 1092.15 856.776C1116.74 908.623 1160.48 957.577 1237.09 999.964L1237.33 1000.1L1237.57 999.964C1314.17 957.61 1357.92 908.656 1382.51 856.801C1407.09 804.955 1412.5 750.255 1412.5 696.45V530.557V530.057H1412H1271.83H1038.94L995.736 530.057V462.071L1199.48 462.071H1200.09L1199.97 461.472C1185.92 391.913 1129.39 345.833 1053 345.833L918.415 345.833H917.927L917.915 346.32C913.581 517.827 870.508 629.917 769.21 735.393L769.071 735.538V735.739V772.86V772.862V772.865V772.868V772.87V772.873V772.876V772.878V772.881V772.884V772.886V772.889V772.892V772.895V772.897V772.9V772.903V772.905V772.908V772.911V772.913V772.916V772.919V772.921V772.924V772.927V772.929V772.932V772.935V772.937V772.94V772.943V772.945V772.948V772.95V772.953V772.956V772.958V772.961V772.964V772.966V772.969V772.972V772.974V772.977V772.979V772.982V772.985V772.987V772.99V772.993V772.995V772.998V773V773.003V773.006V773.008V773.011V773.014V773.016V773.019V773.021V773.024V773.027V773.029V773.032V773.035V773.037V773.04V773.042V773.045V773.047V773.05V773.053V773.055V773.058V773.061V773.063V773.066V773.068V773.071V773.073V773.076V773.079V773.081V773.084V773.086V773.089V773.092V773.094V773.097V773.099V773.102V773.104V773.107V773.11V773.112V773.115V773.117V773.12V773.123V773.125V773.128V773.13V773.133V773.135V773.138V773.141V773.143V773.146V773.148V773.151V773.153V773.156V773.159V773.161V773.164V773.166V773.169V773.171V773.174V773.176V773.179V773.182V773.184V773.187V773.189V773.192V773.194V773.197V773.199V773.202V773.204V773.207V773.21V773.212V773.215V773.217V773.22V773.222V773.225V773.227V773.23V773.233V773.235V773.238V773.24V773.243V773.245V773.248V773.25V773.253V773.255V773.258V773.26V773.263V773.266V773.268V773.271V773.273V773.276V773.278V773.281V773.283V773.286V773.288V773.291V773.293V773.296V773.298V773.301V773.303V773.306V773.308V773.311V773.313V773.316V773.318V773.321V773.324V773.326V773.329V773.331V773.334V773.336V773.339V773.341V773.344V773.346V773.349V773.351V773.354V773.356V773.359V773.361V773.364V773.366V773.369V773.371V773.374V773.376V773.379V773.381V773.384V773.386V773.389V773.391V773.394V773.396V773.399V773.401V773.404V773.406V773.409V773.411V773.414V773.417V773.419V773.422V773.424V773.427V773.429V773.432V773.434V773.437V773.439V773.442V773.444V773.447V773.449V773.452V773.454V773.457V773.459V773.462V773.464V773.467V773.469V773.472V773.474V773.477V773.479V773.482V773.484V773.487V773.489V773.492V773.494V773.497V773.499V773.502V773.504V773.507V773.509V773.512V773.514V773.517V773.519V773.522V773.524V773.527V773.529V773.532V773.534V773.537V773.539V773.542V773.544V773.547V773.549V773.552V773.554V773.557V773.559V773.562V773.564V773.567V773.569V773.572V773.574V773.577V773.579V773.582V773.584V773.587V773.589V773.592V773.594V773.597V773.599V773.602V773.604V773.607V773.609V773.612V773.614V773.617V773.619V773.622V773.624V773.627V773.629V773.632V773.634V773.637V773.639V773.642V773.644V773.647V773.65V773.652V773.655V773.657V773.66V773.662V773.665V773.667V773.67V773.672V773.675V773.677V773.68V773.682V773.685V773.687V773.69V773.692V773.695V773.697V773.7V773.702V773.705V773.707V773.71V773.712V773.715V773.717V773.72V773.722V773.725V773.728V773.73V773.733V773.735V773.738V773.74V773.743V773.745V773.748V773.75V773.753V773.755V773.758V773.76V773.763V773.765V773.768V773.771V773.773V773.776V773.778V773.781V773.783V773.786V773.788V773.791V773.793V773.796V773.798V773.801V773.803V773.806V773.808V773.811V773.814V773.816V773.819V773.821V773.824V773.826V773.829V773.831V773.834V773.837V773.839V773.842V773.844V773.847V773.849V773.852V773.854V773.857V773.859V773.862V773.865V773.867V773.87V773.872V773.875V773.877V773.88V773.883V773.885V773.888V773.89V773.893V773.895V773.898V773.901V773.903V773.906V773.908V773.911V773.913V773.916V773.919V773.921V773.924V773.926V773.929V773.931V773.934V773.937V773.939V773.942V773.944V773.947V773.949V773.952V773.955V773.957V773.96V773.962V773.965V773.968V773.97V773.973V773.975V773.978V773.981V773.983V773.986V773.988V773.991V773.994V773.996V773.999V774.001V774.004V774.007V774.009V774.012V774.015V774.017V774.02V774.022V774.025V774.028V774.03V774.033V774.036V774.038V774.041V774.043V774.046V774.049V774.051V774.054V774.057V774.059V774.062V774.064V774.067V774.07V774.072V774.075V774.078V774.08V774.083V774.086V774.088V774.091V774.094V774.096V774.099V774.101V774.104V774.107V774.109V774.112V774.115V774.117V774.12V774.123V774.125V774.128V774.131V774.133V774.136V774.139V774.141V774.144V774.147V774.15V774.152V774.155V774.158V774.16V774.163V774.166V774.168V774.171V774.174V820.624V821.087L769.533 821.122C886.044 829.972 968.647 918.71 968.647 1038.68V1072.68H290.641C135.501 1072.68 9.28975 946.492 9.28975 791.387C9.28975 709.665 47.5364 635.071 81.3895 569.088L80.9447 568.86L81.3896 569.088L82.0156 567.867C96.3137 539.991 110.135 513.043 120.444 486.984L120.627 486.521L120.165 486.336C81.8233 470.976 21.8914 438.839 -10.5532 380.386C-35.1304 336.124 -38.5483 286.516 -35.6195 247.359C-32.6922 208.222 -23.4281 179.576 -22.6728 177.245C-22.6725 177.244 -22.6723 177.243 -22.672 177.242L-12.8292 147.526L17.6057 154.907L17.6091 154.908L17.6094 154.908C19.983 155.501 49.1877 162.8 83.9574 181.013C118.75 199.238 159.07 228.368 183.68 272.596C222.289 342.196 208.597 425.012 200.257 459.548L200.255 459.556C189.494 507.378 165.41 554.428 141.943 600.102L142.388 600.33L141.943 600.102L141.799 600.382C110.118 662.158 77.2904 726.167 77.2904 791.387C77.2904 909.004 172.998 1004.69 290.641 1004.69H510.851H511.351V1004.19V886.653C511.351 775.181 420.778 684.461 309.344 684.19V616.205C458.275 616.475 579.352 737.693 579.352 886.653V1004.13V1004.63H579.852H896.926H897.537L897.416 1004.03C883.37 934.467 826.837 888.387 750.448 888.387H701.201L701.136 771.677V771.672C700.444 704.011 672.166 649.418 629.324 600.788C586.494 552.172 529.079 509.485 470.078 465.637L469.78 466.039L470.078 465.637C446.616 448.226 422.308 430.163 399.184 411.838C258.783 300.619 190.597 171.719 190.597 17.7649C190.597 -92.0414 257.404 -213.633 353.152 -277.998C436.47 -334.012 534.078 -343.785 627.964 -305.544L918.375 -187.213V14.374H850.374V-141.164V-141.501L850.063 -141.627L649.501 -223.359L648.817 -223.638L648.813 -222.898C648.681 -198.719 648.615 -165.802 648.615 -123.097C648.615 -92.1651 661.776 -64.2034 682.486 -36.7773C703.185 -9.36465 731.466 17.5622 761.776 46.421L761.8 46.4438C827.078 108.618 899.88 178.083 915.292 277.49L915.358 277.913H915.786L1053 277.913C1167.76 277.913 1253.89 353.356 1268.97 461.706ZM35.0121 233.001L34.4147 232.741L34.3183 233.385C29.7137 264.164 28.1163 310.029 48.8988 347.43C69.681 384.829 109.435 407.749 138.049 420.179L138.646 420.438L138.743 419.794C143.347 389.015 144.945 343.084 124.162 305.684C103.511 268.481 63.6261 245.43 35.0121 233.001ZM510.487 411.12L510.786 410.719L510.487 411.12C579.763 462.573 650.15 514.961 700.043 579.612L700.94 580.774L700.939 579.306L700.873 493.173C700.873 433.37 688.285 392.796 664.24 357.532C640.216 322.298 604.769 292.391 559.146 253.904C557.643 252.633 556.135 251.358 554.623 250.079C538.081 236.093 520.951 221.609 502.773 205.361L502.773 205.361C404.655 117.829 389.921 29.6195 394.837 -28.972C401.657 -110.73 450.324 -192.085 531.083 -259.172L532.03 -259.959L530.802 -260.055C471.58 -264.665 423.825 -243.72 390.971 -221.602C312.971 -169.153 258.466 -70.7149 258.466 17.7649C258.466 149.611 318.296 261.108 441.277 358.551C462.525 375.47 485.206 392.328 507.262 408.723L510.487 411.12ZM768.939 628.122L768.94 629.703L769.849 628.409C827.56 546.17 850.309 453.221 850.374 316.308C850.374 224.69 784.593 162.028 715.115 95.845L714.912 95.652C681.85 64.1745 648.274 32.1948 622.957 -3.28687C597.647 -38.759 580.615 -77.7017 580.615 -123.097C580.615 -159.034 580.681 -188.008 580.746 -210.805L580.749 -211.853L579.933 -211.197C510.212 -155.169 468.114 -88.6321 462.644 -23.274C457.37 39.6081 486.193 99.4724 548.042 154.663C567.171 171.751 585.379 187.129 602.99 201.977C649.396 241.144 690.854 276.135 720.725 320.242C750.581 364.328 768.874 417.545 768.874 493.173L768.939 628.122Z" stroke="#002F6C"/>
</svg>
