<svg width="1000" height="232" viewBox="0 0 1000 232" fill="none" xmlns="http://www.w3.org/2000/svg">
<path d="M275.079 631.275V630.775H274.579H199.694H199.194V631.275V905.5H0.5V-92.5H49.4234L49.4166 454.481L50.3688 454.694C106.701 335.296 209.15 242.712 349.441 175.949C508.634 100.191 710.229 61.8298 904.868 57.7204L906.04 57.6957L905.211 56.867L806.55 -41.8066L841.145 -76.4192L999.293 81.8134L841.145 240.046L806.55 205.433L904.362 107.555L905.242 106.674L903.997 106.702C716.348 110.898 522.145 147.966 370.454 220.154C269.262 268.31 189.951 330.009 135.474 406.227C80.9946 482.449 51.3706 573.166 49.5162 679.321L49.5161 679.325L49.4234 689.983V689.987V856.05V856.55H49.9234H149.77H150.27V856.05V581.825H324.002V856.05V856.55H324.502H424.349H424.849V856.05V456.95H598.581V856.05V856.55H599.081H698.928H699.428V856.05V332.075H873.16V856.05V856.55H873.66H997.969V905.5H824.237V381.525V381.025H823.737H748.851H748.351V381.525V905.5H549.658V506.4V505.9H549.158H474.273H473.773V506.4V905.5H275.079V631.275Z" stroke="white" stroke-opacity="0.5"/>
</svg>
