<svg width="10" height="11" viewBox="0 0 10 11" fill="none" xmlns="http://www.w3.org/2000/svg">
<path d="M1.35072 5.61831L5.37222 1.59681C5.78251 1.18652 6.33898 0.956024 6.91922 0.956024C7.49946 0.956024 8.05593 1.18652 8.46622 1.59681C8.87651 2.0071 9.10701 2.56358 9.10701 3.14381C9.10701 3.72405 8.87651 4.28052 8.46622 4.69081L3.82522 9.33094C3.66019 9.49032 3.43917 9.57852 3.20974 9.57653C2.98032 9.57453 2.76086 9.48251 2.59863 9.32028C2.4364 9.15805 2.34437 8.93859 2.34238 8.70916C2.34039 8.47974 2.42858 8.25871 2.58797 8.09369L7.22809 3.45269C7.30779 3.37017 7.35189 3.25966 7.35089 3.14495C7.34989 3.03024 7.30388 2.92051 7.22276 2.83939C7.14165 2.75828 7.03192 2.71226 6.91721 2.71127C6.8025 2.71027 6.69198 2.75437 6.60947 2.83406L1.96934 7.47594C1.8022 7.63737 1.66888 7.83047 1.57717 8.04398C1.48545 8.25749 1.43718 8.48712 1.43516 8.71949C1.43314 8.95185 1.47742 9.18229 1.56541 9.39736C1.6534 9.61243 1.78334 9.80782 1.94765 9.97213C2.11197 10.1364 2.30736 10.2664 2.52243 10.3544C2.73749 10.4424 2.96793 10.4866 3.2003 10.4846C3.43266 10.4826 3.6623 10.4343 3.8758 10.3426C4.08931 10.2509 4.28241 10.1176 4.44384 9.95044L9.08484 5.31031C9.6592 4.73595 9.98188 3.95695 9.98188 3.14469C9.98188 2.33242 9.6592 1.55342 9.08484 0.979062C8.51048 0.404703 7.73149 0.0820313 6.91922 0.0820312C6.10695 0.0820313 5.32795 0.404703 4.75359 0.979062L0.73122 4.99969C0.689434 5.04005 0.656104 5.08832 0.633175 5.1417C0.610246 5.19508 0.598178 5.25248 0.597673 5.31057C0.597168 5.36866 0.608237 5.42627 0.630235 5.48004C0.652233 5.53381 0.684719 5.58266 0.725797 5.62374C0.766875 5.66481 0.815723 5.6973 0.86949 5.7193C0.923257 5.74129 0.980867 5.75236 1.03896 5.75186C1.09705 5.75135 1.15446 5.73929 1.20783 5.71636C1.26121 5.69343 1.30949 5.6601 1.34984 5.61831H1.35072Z" fill="#002F6C"/>
</svg>
