<svg width="67" height="54" viewBox="0 0 67 54" fill="none" xmlns="http://www.w3.org/2000/svg">
<path opacity="0.3" d="M61.5537 1.74036L61.3072 1.33482L60.8894 1.55972C43.7663 10.7761 34.1214 24.2899 34.5958 36.6911C34.7536 41.9065 36.1725 45.8393 37.8651 48.5969C39.5473 51.3375 41.5189 52.9452 42.8114 53.464L42.9011 53.5H42.9977H46.2516H46.3885L46.5063 53.4302L62.0009 44.2565L62.2461 44.1112V43.8262V40.7165V40.4105L61.9737 40.2713L53.8568 36.1217C52.6332 34.5762 52.3296 32.8663 52.3296 29.5213C52.3296 25.8486 53.9016 21.981 56.3318 18.3517C58.7581 14.7282 62.013 11.3833 65.3108 8.76668L65.6564 8.49243L65.4273 8.11536L61.5537 1.74036ZM27.4702 1.74807L27.2258 1.32914L26.7996 1.56063C9.82947 10.7784 0.190828 24.2912 0.507545 36.6866L0.507616 36.6889C0.665139 41.9053 2.08416 45.8389 3.77701 48.5969C5.45919 51.3375 7.43086 52.9452 8.72337 53.464L8.81302 53.5H8.90962H12.1635H12.3004L12.4182 53.4302L27.9128 44.2565L28.1581 44.1112V43.8262V40.7165V40.4105L27.8857 40.2713L19.7822 36.1287C18.6971 34.5795 18.3965 32.8545 18.3965 29.5213C18.3965 25.8453 19.9323 21.9761 22.3048 18.3472C24.6739 14.7236 27.8519 11.3791 31.0722 8.76309L31.4047 8.49303L31.1889 8.12307L27.4702 1.74807Z" stroke="#002F6C"/>
</svg>
