<svg width="12" height="14" viewBox="0 0 12 14" fill="none" xmlns="http://www.w3.org/2000/svg">
<path d="M5.97469 0.270796C5.96266 0.272984 5.95063 0.276265 5.93969 0.279546C5.80953 0.309077 5.71766 0.426109 5.72094 0.559546V9.11705L3.96219 7.35829C3.89438 7.2883 3.79484 7.25876 3.69969 7.27955C3.59469 7.29814 3.51047 7.3747 3.48094 7.47642C3.45141 7.57923 3.48203 7.68861 3.55969 7.7608L5.79969 10.0008L6.00094 10.1933L6.20219 10.0008L8.44219 7.7608C8.55375 7.64923 8.55375 7.46986 8.44219 7.35829C8.33063 7.24673 8.15125 7.24673 8.03969 7.35829L6.28094 9.11705V0.559546C6.28422 0.478609 6.25141 0.400952 6.19344 0.346265C6.13438 0.290484 6.05453 0.26314 5.97469 0.270796ZM0.960938 4.47955L0.960938 13.9995H11.0409V4.47955H8.24094C8.14031 4.47845 8.04625 4.53095 7.99484 4.61845C7.94453 4.70595 7.94453 4.81314 7.99484 4.90064C8.04625 4.98814 8.14031 5.04064 8.24094 5.03955H10.4809V13.4395H1.52094L1.52094 5.03955H3.76094C3.86156 5.04064 3.95563 4.98814 4.00703 4.90064C4.05734 4.81314 4.05734 4.70595 4.00703 4.61845C3.95563 4.53095 3.86156 4.47845 3.76094 4.47955H0.960938Z" fill="white"/>
<path d="M5.97469 0.270796C5.96266 0.272984 5.95063 0.276265 5.93969 0.279546C5.80953 0.309077 5.71766 0.426109 5.72094 0.559546V9.11705L3.96219 7.35829C3.89438 7.2883 3.79484 7.25876 3.69969 7.27955C3.59469 7.29814 3.51047 7.3747 3.48094 7.47642C3.45141 7.57923 3.48203 7.68861 3.55969 7.7608L5.79969 10.0008L6.00094 10.1933L6.20219 10.0008L8.44219 7.7608C8.55375 7.64923 8.55375 7.46986 8.44219 7.35829C8.33063 7.24673 8.15125 7.24673 8.03969 7.35829L6.28094 9.11705V0.559546C6.28422 0.478609 6.25141 0.400952 6.19344 0.346265C6.13438 0.290484 6.05453 0.26314 5.97469 0.270796ZM0.960938 4.47955L0.960938 13.9995H11.0409V4.47955H8.24094C8.14031 4.47845 8.04625 4.53095 7.99484 4.61845C7.94453 4.70595 7.94453 4.81314 7.99484 4.90064C8.04625 4.98814 8.14031 5.04064 8.24094 5.03955H10.4809V13.4395H1.52094L1.52094 5.03955H3.76094C3.86156 5.04064 3.95563 4.98814 4.00703 4.90064C4.05734 4.81314 4.05734 4.70595 4.00703 4.61845C3.95563 4.53095 3.86156 4.47845 3.76094 4.47955H0.960938Z" stroke="white"/>
</svg>
