<svg width="28" height="29" viewBox="0 0 28 29" fill="none" xmlns="http://www.w3.org/2000/svg">
<path fill-rule="evenodd" clip-rule="evenodd" d="M7.99935 20.5108H5.99935V28.0145H0.666016V0.728516H1.99935L1.99917 15.682C3.50528 12.4173 6.24411 9.88657 9.99299 8.06207C14.2468 5.99183 19.6329 4.9438 24.8326 4.83153L22.1881 2.12678L23.1309 1.16207L27.3736 5.50324L23.1309 9.84441L22.1881 8.87971L24.8099 6.19669C19.7996 6.31125 14.6148 7.32348 10.5657 9.29411C5.16356 11.9232 2.10079 16.0296 2.00182 21.8234L1.99935 22.1145V26.6502H4.66602V19.1465H9.33268V26.6502H11.9994V15.7358H16.666V26.6502H19.3327V12.3251H23.9994V26.6502H27.3327V28.0145H22.666V13.6893H20.666V28.0145H15.3327V17.1001H13.3327V28.0145H7.99935V20.5108Z" fill="#63C6DC" fill-opacity="0.7"/>
</svg>
