<svg width="16" height="21" viewBox="0 0 16 21" fill="none" xmlns="http://www.w3.org/2000/svg">
<path d="M14.5 6.63184H1.5C1.22344 6.63184 1 6.85527 1 7.13184V17.1318C1 17.4084 1.22344 17.6318 1.5 17.6318H14.5C14.7766 17.6318 15 17.4084 15 17.1318V7.13184C15 6.85527 14.7766 6.63184 14.5 6.63184ZM13.875 8.36309V16.5068H2.125V8.36309L1.69375 8.02715L2.30781 7.23809L2.97656 7.7584H13.025L13.6938 7.23809L14.3078 8.02715L13.875 8.36309ZM13.025 7.75684L8 11.6631L2.975 7.75684L2.30625 7.23652L1.69219 8.02559L2.12344 8.36152L7.46094 12.5115C7.61444 12.6308 7.80328 12.6955 7.99766 12.6955C8.19203 12.6955 8.38088 12.6308 8.53438 12.5115L13.875 8.36309L14.3062 8.02715L13.6922 7.23809L13.025 7.75684Z" fill="#002F6C"/>
</svg>
