<svg width="16" height="17" viewBox="0 0 16 17" fill="none" xmlns="http://www.w3.org/2000/svg">
<g clip-path="url(#clip0_1757_10368)">
<path d="M15.2483 7.93352L13.25 6.1573V3.42474L10.9571 1.13184H4.75V5.13184H2.5C2.30116 5.13207 2.11053 5.21116 1.96993 5.35176C1.82932 5.49236 1.75023 5.68299 1.75 5.88184V15.3818C1.75023 15.5807 1.82932 15.7713 1.96993 15.9119C2.11053 16.0525 2.30116 16.1316 2.5 16.1318H15.5V8.49412C15.5 8.3882 15.4775 8.2835 15.4341 8.18688C15.3907 8.09026 15.3274 8.00392 15.2483 7.93352ZM4.75 15.1318H2.75V6.13184H4.75V15.1318ZM10.25 2.13184H10.5429L12.25 3.83893V4.13184H10.25V2.13184ZM5.75 2.13184H9.25V5.13184H12.25V7.38184H5.75V2.13184ZM14.5 15.1318H5.75V8.38184H13.25V7.49524L14.5 8.6064V15.1318Z" fill="#002F6C"/>
<path d="M7.25 11.3818H8.25V12.3818H7.25V11.3818ZM9.25 11.3818H10.25V12.3818H9.25V11.3818ZM7.25 13.3818H8.25V14.3818H7.25V13.3818ZM9.25 13.3818H10.25V14.3818H9.25V13.3818ZM11.25 11.3818H12.25V12.3818H11.25V11.3818ZM11.25 13.3818H12.25V14.3818H11.25V13.3818ZM7.25 9.38184H12.25V10.3818H7.25V9.38184Z" fill="#002F6C"/>
</g>
<defs>
<clipPath id="clip0_1757_10368">
<rect width="16" height="16" fill="white" transform="translate(0 0.631836)"/>
</clipPath>
</defs>
</svg>
