<svg width="116" height="17" viewBox="0 0 116 17" fill="none" xmlns="http://www.w3.org/2000/svg">
<path d="M9.00387 10.408C8.09187 11.416 7.27587 11.928 5.81987 11.928C3.40387 11.928 1.72387 9.928 1.72387 7.4C1.72387 4.856 3.40387 2.872 5.81987 2.872C7.24387 2.872 8.04387 3.304 8.84387 4.136L9.88387 3.32C8.87587 2.168 7.67587 1.64 5.81987 1.64C2.50787 1.64 0.315872 4.216 0.315872 7.4C0.315872 10.648 2.55587 13.16 5.81987 13.16C7.78787 13.16 8.95587 12.488 10.0439 11.208L9.00387 10.408ZM11.6142 13H12.9102V8.696C12.9102 7.272 13.8542 5.976 15.1662 5.976C15.3902 5.976 15.6302 5.992 15.8382 6.04L15.9182 4.84C15.8222 4.84 15.6622 4.824 15.5662 4.824C14.3502 4.824 13.4062 5.464 12.9422 6.264H12.9102V4.984H11.6142V13ZM16.658 9C16.658 11.656 18.466 13.16 20.578 13.16C21.874 13.16 22.866 12.584 23.426 11.768H23.474V13H24.77V4.936H23.474V6.264H23.426C22.818 5.416 21.842 4.824 20.546 4.824C18.434 4.824 16.658 6.328 16.658 9ZM18.002 9C18.002 7.08 19.266 5.992 20.754 5.992C22.466 5.992 23.538 7.384 23.538 9C23.538 10.616 22.466 12.008 20.754 12.008C19.266 12.008 18.002 10.904 18.002 9ZM26.3952 4.984V6.12H27.5152V13H28.8112V6.12H30.9712V4.984H28.8112V3.64C28.8112 2.488 29.2112 2.008 30.1552 2.008C30.5072 2.008 30.7632 2.04 31.1632 2.184L31.3552 1.08C30.9552 0.936 30.5392 0.839999 29.9632 0.839999C28.2832 0.839999 27.5152 2.04 27.5152 3.56V4.984H26.3952ZM33.2146 6.136V10.808C33.2146 12.552 34.2066 13.16 35.5026 13.16C36.0146 13.16 36.5586 13.064 37.0066 12.856V11.736C36.5586 11.912 36.1426 11.992 35.7906 11.992C35.0066 11.992 34.5106 11.688 34.5106 10.712V6.136H36.9586V4.984H34.5106V3.016H33.2146V4.984H31.9186V6.136H33.2146ZM41.7914 13.16C43.3274 13.16 44.3354 12.584 45.1834 11.64L44.3514 10.856C43.7114 11.576 42.9594 12.056 41.8394 12.056C40.4634 12.056 39.3114 11.144 39.1834 9.48H45.4074C45.4234 9.304 45.4234 9.208 45.4234 9.064C45.4234 6.712 44.0794 4.824 41.6794 4.824C39.4394 4.824 37.8074 6.664 37.8074 9C37.8074 11.496 39.5834 13.16 41.7914 13.16ZM39.1674 8.52C39.3114 6.968 40.3194 5.912 41.6474 5.912C43.1674 5.912 43.9674 7.032 44.0794 8.52H39.1674ZM46.753 9C46.753 11.656 48.561 13.16 50.673 13.16C51.969 13.16 52.961 12.584 53.521 11.768H53.569V13H54.865V0.999999H53.569V6.264H53.521C52.913 5.4 51.937 4.824 50.641 4.824C48.529 4.824 46.753 6.328 46.753 9ZM48.097 9C48.097 7.08 49.361 5.992 50.849 5.992C52.561 5.992 53.633 7.384 53.633 9C53.633 10.616 52.561 12.008 50.849 12.008C49.361 12.008 48.097 10.904 48.097 9ZM61.593 13H62.889V11.768H62.921C63.497 12.584 64.489 13.16 65.785 13.16C67.897 13.16 69.689 11.656 69.689 9C69.689 6.328 67.913 4.824 65.817 4.824C64.505 4.824 63.545 5.416 62.921 6.264H62.889V0.999999H61.593V13ZM62.809 9C62.809 7.384 63.881 5.992 65.609 5.992C67.097 5.992 68.361 7.08 68.361 9C68.361 10.904 67.097 12.008 65.609 12.008C63.897 12.008 62.809 10.616 62.809 9ZM70.0589 15.704C70.5229 15.896 71.2269 16.12 71.9149 16.12C73.1949 16.12 73.9309 15.464 74.6029 13.896L78.3469 4.984H76.9709L74.3949 11.208H74.3629L71.7229 4.984H70.3149L73.7069 12.776L73.4029 13.496C72.9709 14.536 72.5229 14.936 71.8189 14.936C71.3709 14.936 70.9229 14.792 70.4429 14.6L70.0589 15.704Z" fill="#157BFF"/>
<path d="M84.375 13V1H86.2266V5.92969H86.2578C86.8255 5.14844 87.6302 4.75781 88.6719 4.75781C89.5625 4.75781 90.2734 5.04427 90.8047 5.61719C91.3359 6.1849 91.6016 6.96615 91.6016 7.96094V13H89.75V8.35938C89.75 7.72917 89.599 7.24219 89.2969 6.89844C88.9948 6.54948 88.5755 6.375 88.0391 6.375C87.513 6.375 87.0781 6.57031 86.7344 6.96094C86.3958 7.35156 86.2266 7.85938 86.2266 8.48438V13H84.375ZM93.2188 13.0469L94.3828 11.75C93.7109 10.9792 93.375 10.0469 93.375 8.95312C93.375 7.76042 93.7812 6.76302 94.5938 5.96094C95.4115 5.15885 96.4297 4.75781 97.6484 4.75781C98.5703 4.75781 99.3854 4.99219 100.094 5.46094L100.656 4.85938H102.078L100.898 6.17188C101.581 6.91667 101.922 7.84375 101.922 8.95312C101.922 9.73958 101.737 10.4557 101.367 11.1016C100.997 11.7422 100.484 12.2448 99.8281 12.6094C99.1719 12.974 98.4401 13.1562 97.6328 13.1562C96.7161 13.1562 95.901 12.9167 95.1875 12.4375L94.625 13.0469H93.2188ZM97.6484 11.5312C98.3516 11.5312 98.9271 11.2839 99.375 10.7891C99.8229 10.2891 100.047 9.67708 100.047 8.95312C100.047 8.44792 99.9193 7.98438 99.6641 7.5625L96.3516 11.125C96.737 11.3958 97.1693 11.5312 97.6484 11.5312ZM95.25 8.95312C95.25 9.49479 95.3776 9.96354 95.6328 10.3594L98.9141 6.78906C98.5391 6.51302 98.112 6.375 97.6328 6.375C96.9349 6.375 96.362 6.625 95.9141 7.125C95.4714 7.625 95.25 8.23438 95.25 8.95312ZM103.859 13V1H105.711V13H103.859ZM113.719 4.92188H115.656L112.023 13.7031C111.857 14.1094 111.685 14.4531 111.508 14.7344C111.331 15.0156 111.122 15.263 110.883 15.4766C110.648 15.6953 110.378 15.8568 110.07 15.9609C109.763 16.0651 109.411 16.1172 109.016 16.1172C108.474 16.1172 107.846 15.9792 107.133 15.7031L107.656 14.1719C108.151 14.3594 108.542 14.4531 108.828 14.4531C109.193 14.4531 109.492 14.3568 109.727 14.1641C109.961 13.9714 110.185 13.6302 110.398 13.1406L110.586 12.6797L107.242 4.92188H109.258L111.5 10.3594H111.531L113.719 4.92188Z" fill="white"/>
<path d="M83.1875 16.0625H115.992V16.375H83.1875V16.0625Z" fill="white"/>
</svg>
