<svg width="28" height="28" viewBox="0 0 28 28" fill="none" xmlns="http://www.w3.org/2000/svg">
<path fill-rule="evenodd" clip-rule="evenodd" d="M27.3327 25.6506V27.0149H0.666016V25.6506H27.3327ZM0.668864 8.59683V4.56024L13.9992 0.0703125L27.3481 4.56002V8.59683H23.9994V20.8755C23.9994 21.629 24.5963 22.2398 25.3327 22.2398H27.3327V23.6041H25.3327C23.8599 23.6041 22.666 22.3825 22.666 20.8755V7.23253L26.0147 7.23185V5.54762L13.9994 1.50657L2.00202 5.54762V7.23185L5.33268 7.23253V20.8755C5.33268 22.3825 4.13878 23.6041 2.66602 23.6041H0.666016V22.2398H2.66602C3.4024 22.2398 3.99935 21.629 3.99935 20.8755V8.59683H0.668864ZM12.9994 7.23253V20.705C12.9994 22.3061 11.7308 23.6041 10.166 23.6041C8.60121 23.6041 7.33268 22.3061 7.33268 20.705V7.23253H12.9994ZM20.666 7.23253V20.8755C20.666 22.3825 19.4721 23.6041 17.9994 23.6041H17.666C16.1933 23.6041 14.9994 22.3825 14.9994 20.8755V7.23253H20.666ZM19.3327 8.59683H16.3327V20.705C16.3327 21.5526 17.0043 22.2398 17.8327 22.2398C18.6611 22.2398 19.3327 21.5526 19.3327 20.705V8.59683ZM11.666 8.59683H8.66602V20.705C8.66602 21.5526 9.33759 22.2398 10.166 22.2398C10.9944 22.2398 11.666 21.5526 11.666 20.705V8.59683Z" fill="#FF8275"/>
</svg>
