<svg width="12" height="12" viewBox="0 0 12 12" fill="none" xmlns="http://www.w3.org/2000/svg">
<path d="M9.73372 0.400391C9.23865 0.400391 8.76386 0.597057 8.41379 0.947125C8.06372 1.29719 7.86706 1.77199 7.86706 2.26706C7.86789 2.39827 7.88255 2.52903 7.91081 2.65716L3.67253 4.7763C3.49772 4.57505 3.28184 4.41358 3.03941 4.30274C2.79698 4.1919 2.53362 4.13427 2.26706 4.13372C1.77199 4.13372 1.29719 4.33039 0.947125 4.68046C0.597057 5.03053 0.400391 5.50532 0.400391 6.00039C0.400391 6.49546 0.597057 6.97026 0.947125 7.32032C1.29719 7.67039 1.77199 7.86706 2.26706 7.86706C2.53371 7.86676 2.7972 7.80933 3.03979 7.69865C3.28238 7.58796 3.49845 7.42659 3.67344 7.22539L7.90898 9.34362C7.88134 9.47182 7.86729 9.60258 7.86706 9.73372C7.86706 10.2288 8.06372 10.7036 8.41379 11.0537C8.76386 11.4037 9.23865 11.6004 9.73372 11.6004C10.2288 11.6004 10.7036 11.4037 11.0537 11.0537C11.4037 10.7036 11.6004 10.2288 11.6004 9.73372C11.6004 9.23865 11.4037 8.76386 11.0537 8.41379C10.7036 8.06372 10.2288 7.86706 9.73372 7.86706C9.46707 7.86736 9.20358 7.92478 8.96099 8.03547C8.7184 8.14615 8.50233 8.30753 8.32734 8.50872L4.0918 6.3905C4.11944 6.26229 4.13349 6.13154 4.13372 6.00039C4.13283 5.86948 4.11816 5.73904 4.08997 5.6112L8.32826 3.49206C8.50314 3.69314 8.71906 3.85445 8.96149 3.96513C9.20391 4.07581 9.46723 4.13329 9.73372 4.13372C10.2288 4.13372 10.7036 3.93706 11.0537 3.58699C11.4037 3.23692 11.6004 2.76213 11.6004 2.26706C11.6004 1.77199 11.4037 1.29719 11.0537 0.947125C10.7036 0.597057 10.2288 0.400391 9.73372 0.400391Z" fill="#002F6C"/>
</svg>
