<svg width="160" height="60" viewBox="0 0 160 60" fill="none" xmlns="http://www.w3.org/2000/svg">
<g clip-path="url(#clip0_363_3588)">
<path d="M68.2969 24.8128V12.9668H75.8981V15.1534H70.7204V24.798L68.2969 24.8128Z" fill="white"/>
<path d="M87.4573 22.6209V24.8074H78.6172V24.2892L82.1808 18.7512L78.6172 13.4994V13.0059H87.2549V15.1924H82.5659L84.8956 18.5093V19.0325L82.4721 22.6209H87.4573Z" fill="white"/>
<path d="M98.9693 15.1682H93.4264V17.572H97.4984V19.6598H93.4264V22.6213H99.1815V24.8079H91.0078V12.9619H98.9693V15.1682Z" fill="white"/>
<path d="M111.421 19.5259C111.794 20.0546 111.986 20.6902 111.969 21.3373C111.983 21.8094 111.893 22.2788 111.705 22.7122C111.518 23.1456 111.237 23.5323 110.883 23.8447C110.107 24.5179 109.105 24.8708 108.079 24.8319H102.803V12.9859H106.998C107.981 12.9446 108.942 13.2741 109.693 13.9089C110.034 14.2013 110.306 14.5663 110.487 14.977C110.669 15.3878 110.757 15.834 110.745 16.283C110.756 16.6809 110.683 17.0766 110.532 17.4447C110.38 17.8128 110.154 18.1451 109.866 18.4202C110.486 18.6197 111.029 19.0059 111.421 19.5259ZM105.137 15.0589V17.7687H106.806C107.218 17.795 107.624 17.6625 107.941 17.3985C108.077 17.2737 108.183 17.1205 108.253 16.9499C108.323 16.7793 108.355 16.5955 108.346 16.4113C108.356 16.2271 108.325 16.0429 108.255 15.8722C108.185 15.7014 108.077 15.5484 107.941 15.4242C107.62 15.1676 107.216 15.0393 106.806 15.0639L105.137 15.0589ZM109.135 22.3393C109.423 22.0499 109.584 21.6587 109.584 21.2509C109.584 20.8432 109.423 20.452 109.135 20.1626C108.789 19.8756 108.346 19.731 107.897 19.7578H105.137V22.7193H107.897C108.342 22.7488 108.783 22.6136 109.135 22.3393Z" fill="white"/>
<path d="M123.391 15.1682H117.853V17.572H121.92V19.6598H117.853V22.6213H123.608V24.8079H115.43V12.9619H123.391V15.1682Z" fill="white"/>
<path d="M135.192 15.1682H129.649V17.572H133.721V19.6598H129.649V22.6213H135.404V24.8079H127.23V12.9619H135.192V15.1682Z" fill="white"/>
<path d="M68.3359 38.1888V33.1592H71.2974V33.6922H68.9135V38.1888H68.3359Z" fill="white"/>
<path d="M73.8202 37.557C73.6514 37.789 73.4279 37.9757 73.1696 38.1005C72.9113 38.2254 72.6261 38.2845 72.3395 38.2727C71.9611 38.2892 71.5879 38.1799 71.2782 37.9617C71.0686 37.8134 70.925 37.5891 70.878 37.3366C70.831 37.0841 70.8843 36.8232 71.0265 36.6093C71.1395 36.4428 71.2968 36.3112 71.4806 36.2293C71.3361 36.1473 71.2171 36.0269 71.137 35.8813C71.0568 35.7358 71.0186 35.5709 71.0265 35.405C71.0225 35.2612 71.0537 35.1185 71.1173 34.9895C71.181 34.8605 71.2752 34.7489 71.3917 34.6646C71.6721 34.4706 72.0089 34.3751 72.3493 34.3931C72.6212 34.3755 72.8932 34.4252 73.1412 34.538C73.3892 34.6508 73.6055 34.8232 73.7708 35.0397L73.376 35.3902C73.256 35.2453 73.105 35.1292 72.9341 35.0506C72.7633 34.972 72.5769 34.9329 72.3888 34.9361C71.8952 34.9361 71.6484 35.1088 71.6484 35.4543C71.6449 35.5249 71.6583 35.5954 71.6875 35.6597C71.7167 35.7241 71.7608 35.7806 71.8162 35.8245C71.958 35.9299 72.1339 35.9792 72.3098 35.9627H73.0008V36.481H72.3246C72.1058 36.4646 71.888 36.5238 71.7076 36.6488C71.6396 36.6988 71.5845 36.7643 71.5467 36.8398C71.509 36.9153 71.4897 36.9987 71.4905 37.0832C71.485 37.1782 71.5034 37.2732 71.5439 37.3593C71.5844 37.4455 71.6458 37.5202 71.7225 37.5767C71.9171 37.7033 72.1472 37.7639 72.3789 37.7495C72.5888 37.757 72.7974 37.7133 72.9866 37.6221C73.1758 37.531 73.3399 37.3951 73.4648 37.2263L73.8202 37.557Z" fill="white"/>
<path d="M77.9822 34.4668L76.2398 38.2625H76.0276L74.2754 34.4668H74.8973L76.1313 37.2654L77.3603 34.4668H77.9822Z" fill="white"/>
<path d="M79.2839 37.0779C79.2724 37.2519 79.3174 37.425 79.4122 37.5714C79.4631 37.6253 79.5255 37.667 79.5947 37.6935C79.6639 37.72 79.7382 37.7306 79.812 37.7244H80.0786V38.218C79.9417 38.254 79.8006 38.2723 79.659 38.2723C79.0174 38.2723 78.6719 37.8972 78.6719 37.142V34.4668H79.2592L79.2839 37.0779Z" fill="white"/>
<path d="M80.7852 34.4668H81.3725V38.1785H80.7852V34.4668ZM83.9095 38.1785H83.1691L81.4515 36.1647L83.0606 34.4668H83.8158L82.1919 36.1598L83.9095 38.1785Z" fill="white"/>
<path d="M87.6255 34.7979C87.8853 35.0885 88.0201 35.4698 88.0006 35.8591V39.561H87.4132V35.948C87.424 35.6845 87.334 35.4268 87.1615 35.2273C87.0781 35.1405 86.9775 35.072 86.8662 35.0261C86.7549 34.9802 86.6353 34.958 86.5149 34.9608C86.3842 34.9562 86.2539 34.9788 86.1324 35.0272C86.0109 35.0757 85.9008 35.1488 85.8091 35.2421C85.7179 35.3354 85.6461 35.4458 85.5978 35.5669C85.5495 35.6881 85.5257 35.8176 85.5277 35.948V38.2036H84.9502V35.5037C84.9502 35.1533 84.812 34.9805 84.5307 34.9805C84.4567 34.976 84.3826 34.976 84.3086 34.9805V34.487C84.4442 34.4526 84.5833 34.4343 84.7232 34.4327C84.8819 34.4184 85.0407 34.4599 85.1722 34.55C85.3037 34.64 85.3997 34.7731 85.4438 34.9262C85.5873 34.7517 85.7696 34.613 85.9761 34.5213C86.1826 34.4296 86.4077 34.3875 86.6334 34.3981C86.8177 34.3901 87.0016 34.4217 87.1727 34.4906C87.3438 34.5596 87.4982 34.6644 87.6255 34.7979ZM86.5149 33.8749H86.0608V32.2461H86.7666V32.3547L86.5149 33.8749Z" fill="white"/>
<path d="M94.7982 37.6557V38.1888H91.2246V38.0358L92.9768 35.6123L91.2246 33.3122V33.1592H94.7093V33.6922H92.2414L93.6432 35.5284V35.6814L92.2167 37.6557H94.7982Z" fill="white"/>
<path d="M98.5937 36.4116C98.6317 36.9163 98.4745 37.4164 98.1544 37.8085C98.0099 37.9618 97.8343 38.0825 97.6393 38.1625C97.4444 38.2425 97.2347 38.28 97.0241 38.2724C96.8165 38.2808 96.6093 38.2471 96.415 38.1733C96.2208 38.0995 96.0435 37.9871 95.8938 37.843C95.7447 37.6864 95.6293 37.501 95.5546 37.2981C95.4799 37.0952 95.4475 36.8792 95.4594 36.6634V34.4669H96.0468V36.6831C96.0397 36.8226 96.0606 36.9621 96.108 37.0934C96.1555 37.2248 96.2286 37.3454 96.3232 37.4481C96.4149 37.5414 96.525 37.6146 96.6465 37.6631C96.768 37.7115 96.8983 37.7341 97.029 37.7295C97.161 37.7336 97.2922 37.7078 97.4127 37.6539C97.5332 37.6 97.64 37.5196 97.725 37.4185C97.9248 37.1299 98.0189 36.7813 97.9915 36.4314C97.987 36.0998 97.9523 35.7694 97.8879 35.4442C97.8314 35.1082 97.7456 34.7779 97.6312 34.457H98.2186C98.465 35.0793 98.5922 35.7423 98.5937 36.4116Z" fill="white"/>
<path d="M102.804 34.4668L101.056 38.2625H100.829L99.0723 34.4668H99.6991L100.933 37.2654L102.157 34.4668H102.804Z" fill="white"/>
<path d="M106.398 34.9601C106.582 35.1393 106.727 35.3544 106.825 35.5921C106.923 35.8299 106.97 36.0851 106.965 36.3421C106.971 36.5982 106.924 36.8527 106.825 37.0891C106.726 37.3255 106.579 37.5385 106.393 37.7143C106.213 37.8963 105.999 38.0401 105.762 38.1368C105.525 38.2335 105.271 38.2812 105.016 38.277C104.698 38.2743 104.385 38.1936 104.106 38.0418C103.826 37.8901 103.588 37.6719 103.413 37.4066C103.238 37.1413 103.13 36.837 103.1 36.5204C103.07 36.2038 103.119 35.8847 103.241 35.5912C103.363 35.2976 103.556 35.0387 103.802 34.8371C104.048 34.6355 104.339 34.4974 104.651 34.4351C104.963 34.3728 105.285 34.388 105.59 34.4796C105.895 34.5711 106.172 34.7361 106.398 34.9601ZM104.068 35.3451C103.825 35.6166 103.691 35.968 103.691 36.3322C103.691 36.6965 103.825 37.0479 104.068 37.3194C104.193 37.4466 104.342 37.5476 104.506 37.6165C104.671 37.6854 104.847 37.7209 105.026 37.7209C105.204 37.7209 105.38 37.6854 105.545 37.6165C105.709 37.5476 105.858 37.4466 105.983 37.3194C106.109 37.1886 106.209 37.034 106.275 36.8645C106.341 36.695 106.372 36.5141 106.368 36.3322C106.375 35.9652 106.237 35.6102 105.983 35.3451C105.859 35.2168 105.711 35.1149 105.547 35.0452C105.383 34.9756 105.206 34.9397 105.028 34.9397C104.85 34.9397 104.673 34.9756 104.509 35.0452C104.345 35.1149 104.197 35.2168 104.073 35.3451H104.068Z" fill="white"/>
<path d="M111.585 37.6948V38.1884C111.454 38.2209 111.32 38.2391 111.185 38.2427C111.033 38.2551 110.881 38.218 110.752 38.1371C110.623 38.0561 110.524 37.9356 110.469 37.7935C110.352 37.9528 110.198 38.081 110.02 38.167C109.842 38.253 109.645 38.2943 109.448 38.2871C109.26 38.2956 109.072 38.2599 108.901 38.1827C108.73 38.1056 108.579 37.9891 108.46 37.8429V39.5754H107.873V34.4668H108.46V36.683C108.451 36.9563 108.546 37.223 108.727 37.4283C108.813 37.5223 108.919 37.5966 109.036 37.6461C109.154 37.6955 109.281 37.7188 109.408 37.7146C109.535 37.7179 109.662 37.6941 109.779 37.6447C109.897 37.5953 110.002 37.5216 110.089 37.4283C110.273 37.2222 110.37 36.9537 110.361 36.6781V34.4668H110.943V37.142C110.943 37.5171 111.081 37.7047 111.358 37.7047C111.434 37.707 111.509 37.7037 111.585 37.6948Z" fill="white"/>
<path d="M115.312 34.9601C115.496 35.1393 115.641 35.3544 115.739 35.5921C115.837 35.8299 115.884 36.0851 115.879 36.3421C115.885 36.5982 115.838 36.8527 115.739 37.0891C115.64 37.3255 115.493 37.5385 115.307 37.7143C115.127 37.8963 114.913 38.0401 114.676 38.1368C114.439 38.2335 114.185 38.2812 113.93 38.277C113.612 38.2743 113.299 38.1936 113.02 38.0418C112.74 37.8901 112.503 37.6719 112.327 37.4066C112.152 37.1413 112.045 36.837 112.015 36.5204C111.985 36.2038 112.033 35.8847 112.155 35.5912C112.277 35.2976 112.47 35.0387 112.716 34.8371C112.962 34.6355 113.254 34.4974 113.565 34.4351C113.877 34.3728 114.2 34.388 114.504 34.4796C114.809 34.5711 115.086 34.7361 115.312 34.9601ZM112.982 35.3451C112.739 35.6166 112.605 35.968 112.605 36.3322C112.605 36.6965 112.739 37.0479 112.982 37.3194C113.107 37.4466 113.256 37.5476 113.42 37.6165C113.585 37.6854 113.761 37.7209 113.94 37.7209C114.118 37.7209 114.294 37.6854 114.459 37.6165C114.623 37.5476 114.772 37.4466 114.897 37.3194C115.024 37.1886 115.123 37.034 115.189 36.8645C115.255 36.695 115.287 36.5141 115.282 36.3322C115.29 35.9652 115.151 35.6102 114.897 35.3451C114.773 35.2168 114.625 35.1149 114.461 35.0452C114.297 34.9756 114.12 34.9397 113.942 34.9397C113.764 34.9397 113.587 34.9756 113.423 35.0452C113.259 35.1149 113.111 35.2168 112.987 35.3451H112.982Z" fill="white"/>
<path d="M120.909 35.0046H119.749C119.959 35.1654 120.128 35.3743 120.242 35.6139C120.355 35.8535 120.409 36.1168 120.4 36.3817C120.393 36.7598 120.274 37.1273 120.059 37.4386C119.845 37.7499 119.543 37.9912 119.192 38.1327C118.842 38.2741 118.457 38.3094 118.087 38.2342C117.716 38.1589 117.376 37.9765 117.108 37.7095C116.931 37.5294 116.791 37.3156 116.698 37.0808C116.605 36.846 116.559 36.5948 116.565 36.3422C116.559 36.0931 116.605 35.8454 116.7 35.6151C116.795 35.3848 116.938 35.1769 117.118 35.0046C117.304 34.8295 117.522 34.6927 117.761 34.6021C118 34.5115 118.254 34.4688 118.51 34.4765H120.909V35.0046ZM119.428 37.3245C119.676 37.0566 119.811 36.7026 119.803 36.3373C119.81 36.1609 119.78 35.985 119.716 35.8204C119.653 35.6557 119.556 35.5058 119.433 35.3797C119.175 35.1418 118.838 35.0096 118.487 35.0096C118.137 35.0096 117.799 35.1418 117.542 35.3797C117.418 35.5065 117.322 35.6573 117.258 35.8228C117.194 35.9883 117.165 36.165 117.172 36.3422C117.161 36.7071 117.294 37.0616 117.542 37.3294C117.664 37.4563 117.811 37.5572 117.973 37.6262C118.135 37.6952 118.309 37.7307 118.485 37.7307C118.661 37.7307 118.835 37.6952 118.997 37.6262C119.159 37.5572 119.306 37.4563 119.428 37.3294V37.3245Z" fill="white"/>
<path d="M124.21 37.991C124.051 37.7837 123.974 37.5257 123.993 37.2654V35.0048H122.181V38.1884H121.594V34.4668H124.555V37.2161C124.555 37.5418 124.689 37.7096 124.96 37.7096C125.036 37.715 125.111 37.715 125.187 37.7096V38.2032C125.058 38.2353 124.925 38.2535 124.792 38.2575C124.681 38.2585 124.572 38.2351 124.471 38.1891C124.371 38.143 124.281 38.0754 124.21 37.991Z" fill="white"/>
<path d="M128.913 34.9609C129.097 35.1408 129.242 35.3561 129.339 35.5937C129.437 35.8312 129.485 36.0862 129.481 36.343C129.486 36.5989 129.438 36.853 129.339 37.0892C129.24 37.3255 129.094 37.5386 128.908 37.7151C128.728 37.8973 128.512 38.0411 128.275 38.1378C128.037 38.2345 127.783 38.2821 127.526 38.2778C127.272 38.2824 127.02 38.2349 126.784 38.1381C126.549 38.0413 126.337 37.8974 126.159 37.7151C125.8 37.3465 125.6 36.8524 125.6 36.338C125.6 35.8236 125.8 35.3295 126.159 34.9609C126.528 34.6021 127.022 34.4014 127.536 34.4014C128.051 34.4014 128.545 34.6021 128.913 34.9609ZM126.579 35.3459C126.336 35.6174 126.202 35.9689 126.202 36.3331C126.202 36.6973 126.336 37.0488 126.579 37.3203C126.704 37.4476 126.854 37.5486 127.018 37.6176C127.183 37.6866 127.36 37.7222 127.539 37.7222C127.717 37.7222 127.894 37.6866 128.059 37.6176C128.224 37.5486 128.373 37.4476 128.499 37.3203C128.625 37.1894 128.724 37.0348 128.79 36.8653C128.856 36.6959 128.888 36.5149 128.884 36.3331C128.891 35.9661 128.753 35.6111 128.499 35.3459C128.375 35.2176 128.226 35.1155 128.061 35.0458C127.897 34.9761 127.72 34.9401 127.541 34.9401C127.363 34.9401 127.186 34.9761 127.021 35.0458C126.857 35.1155 126.708 35.2176 126.584 35.3459H126.579Z" fill="white"/>
<path d="M133.489 34.4668L131.742 38.2625H131.53L129.777 34.4668H130.399L131.633 37.2654L132.862 34.4668H133.489Z" fill="white"/>
<path d="M137.671 36.3076C137.677 36.5664 137.631 36.8238 137.535 37.0644C137.44 37.305 137.297 37.5239 137.115 37.7082C136.933 37.8924 136.716 38.0381 136.476 38.1367C136.237 38.2352 135.98 38.2846 135.721 38.2819C135.465 38.2873 135.211 38.2401 134.974 38.1433C134.737 38.0466 134.523 37.9022 134.344 37.7192C134.163 37.5382 134.02 37.3225 133.924 37.085C133.829 36.8476 133.782 36.5932 133.786 36.3372C133.777 36.0814 133.822 35.8265 133.918 35.5892C134.014 35.3519 134.16 35.1376 134.344 34.9601C134.524 34.7817 134.737 34.6413 134.972 34.5471C135.207 34.453 135.458 34.4071 135.711 34.4122H135.761L133.959 32.6403V32.4922H137.463V32.9858H135.139L136.94 34.7824C137.159 34.9736 137.337 35.2074 137.463 35.4697C137.588 35.7319 137.659 36.017 137.671 36.3076ZM136.684 37.3293C136.81 37.1985 136.909 37.0438 136.975 36.8744C137.041 36.7049 137.073 36.524 137.069 36.3421C137.074 36.1601 137.043 35.9789 136.977 35.8093C136.911 35.6396 136.811 35.4851 136.684 35.355C136.561 35.2251 136.412 35.1224 136.247 35.0535C136.082 34.9847 135.905 34.9512 135.726 34.9552C135.547 34.9502 135.369 34.9833 135.204 35.0522C135.039 35.1212 134.891 35.2243 134.769 35.355C134.526 35.6264 134.391 35.9779 134.391 36.3421C134.391 36.7064 134.526 37.0578 134.769 37.3293C134.891 37.4593 135.04 37.5617 135.205 37.6298C135.37 37.6979 135.548 37.7301 135.726 37.7242C135.904 37.7288 136.082 37.6961 136.247 37.6281C136.412 37.56 136.56 37.4583 136.684 37.3293Z" fill="white"/>
<path d="M139.063 37.0783C139.05 37.2531 139.097 37.4271 139.196 37.5719C139.246 37.6251 139.308 37.6664 139.376 37.6929C139.445 37.7193 139.518 37.7303 139.591 37.7249H139.858V38.2185C139.721 38.2544 139.58 38.2727 139.438 38.2727C138.796 38.2727 138.48 37.8976 138.48 37.1424V34.4672H139.063V37.0783ZM139.216 32.3547L138.964 33.8749H138.51V32.2461H139.216V32.3547Z" fill="white"/>
<path d="M144.591 37.6954V38.189C144.458 38.2215 144.323 38.2397 144.186 38.2433C143.997 38.2584 143.809 38.1987 143.663 38.0768C143.517 37.955 143.425 37.7808 143.406 37.5917C143.26 37.8053 143.058 37.9757 142.824 38.0853C142.576 38.2044 142.304 38.2652 142.029 38.263C141.786 38.268 141.545 38.2208 141.322 38.1245C141.099 38.0283 140.899 37.8853 140.736 37.7053C140.405 37.3209 140.223 36.8305 140.223 36.3232C140.223 35.8159 140.405 35.3255 140.736 34.9412C140.898 34.7598 141.098 34.616 141.321 34.5196C141.544 34.4233 141.786 34.3768 142.029 34.3834C142.316 34.3796 142.599 34.4474 142.853 34.5809C143.094 34.6982 143.296 34.8814 143.436 35.109C143.436 35.0202 143.436 34.8079 143.475 34.4673H144.033C143.984 35.2373 143.954 35.8247 143.954 36.2344V37.1672C143.954 37.5276 144.092 37.7053 144.359 37.7053C144.436 37.7068 144.514 37.7035 144.591 37.6954ZM143.001 37.3696C143.132 37.2329 143.233 37.0707 143.297 36.8931C143.362 36.7156 143.389 36.5266 143.377 36.338C143.389 36.1491 143.362 35.9597 143.299 35.7815C143.235 35.6032 143.136 35.4399 143.006 35.3015C142.889 35.182 142.748 35.088 142.593 35.0251C142.437 34.9623 142.271 34.9321 142.103 34.9363C141.931 34.9322 141.759 34.9654 141.601 35.0335C141.443 35.1016 141.301 35.2032 141.185 35.3311C140.952 35.6132 140.825 35.9674 140.825 36.3331C140.825 36.6987 140.952 37.053 141.185 37.3351C141.3 37.4641 141.442 37.5663 141.6 37.6345C141.759 37.7027 141.931 37.7353 142.103 37.7299C142.269 37.7335 142.435 37.7034 142.589 37.6415C142.743 37.5796 142.884 37.4871 143.001 37.3696Z" fill="white"/>
<path d="M71.559 43.5438H68.9332V45.0838H70.9421V45.6169H68.9332V47.5073H71.6528V48.0403H68.3359V43.0107H71.559V43.5438Z" fill="white"/>
<path d="M75.0437 47.8433C74.8854 47.636 74.8081 47.378 74.8265 47.1177V44.8571H73.0151V48.0407H72.4277V44.3389H75.3892V47.0881C75.3892 47.4139 75.5225 47.5817 75.794 47.5817C75.8703 47.5808 75.9463 47.5725 76.021 47.557V48.0506C75.8917 48.0831 75.7593 48.1013 75.6261 48.1049C75.5159 48.1061 75.4067 48.0834 75.3061 48.0382C75.2055 47.993 75.116 47.9265 75.0437 47.8433Z" fill="white"/>
<path d="M80.8147 47.542V48.0355C80.6839 48.0683 80.5498 48.0865 80.4149 48.0898C80.2255 48.105 80.0377 48.0452 79.8919 47.9234C79.7461 47.8016 79.6538 47.6274 79.6351 47.4383C79.4885 47.6519 79.2874 47.8223 79.0526 47.9319C78.8048 48.051 78.533 48.1118 78.258 48.1096C78.0151 48.1146 77.7739 48.0673 77.5508 47.9711C77.3277 47.8749 77.1279 47.7319 76.9648 47.5518C76.6346 47.1671 76.4531 46.6768 76.4531 46.1698C76.4531 45.6628 76.6346 45.1725 76.9648 44.7878C77.1282 44.6068 77.3288 44.4633 77.5529 44.367C77.7769 44.2707 78.0191 44.224 78.2629 44.23C78.5492 44.2268 78.8319 44.2929 79.0872 44.4225C79.3278 44.5416 79.5297 44.7265 79.6696 44.9556C79.6696 44.8667 79.6696 44.6545 79.7091 44.3139H80.2669C80.2175 45.0839 80.1879 45.6713 80.1879 46.0809V47.0138C80.1879 47.3742 80.3261 47.5518 80.5926 47.5518C80.6668 47.5551 80.7411 47.5518 80.8147 47.542ZM79.2303 47.2211C79.3607 47.0844 79.4614 46.9222 79.5259 46.7446C79.5905 46.5671 79.6176 46.3781 79.6054 46.1895C79.6177 46.0006 79.5912 45.8112 79.5276 45.633C79.4639 45.4547 79.3644 45.2914 79.2353 45.153C79.1177 45.0335 78.9769 44.9395 78.8215 44.8766C78.6662 44.8138 78.4995 44.7836 78.332 44.7878C78.1594 44.7824 77.9877 44.8149 77.8291 44.8832C77.6705 44.9514 77.5287 45.0536 77.4139 45.1826C77.1717 45.4533 77.0427 45.8067 77.0536 46.1698C77.0452 46.5325 77.1739 46.885 77.4139 47.157C77.5296 47.2849 77.6714 47.3864 77.8299 47.4546C77.9883 47.5227 78.1596 47.5559 78.332 47.5518C78.4962 47.5593 78.6603 47.5339 78.8146 47.4771C78.9688 47.4204 79.1102 47.3333 79.2303 47.2211Z" fill="white"/>
<path d="M83.1735 47.7347V49.4129H82.5911V47.7199L81.0215 44.3389H81.6483L82.8823 47.1375L84.1064 44.3389H84.7332L83.1735 47.7347Z" fill="white"/>
<path d="M87.3834 47.7347V49.4129H86.8059V47.7199L85.2363 44.3389H85.8582L87.0922 47.1375L88.3212 44.3389H88.9481L87.3834 47.7347Z" fill="white"/>
<path d="M92.3436 47.4089C92.1742 47.6402 91.9506 47.8265 91.6924 47.9513C91.4343 48.076 91.1494 48.1356 90.8629 48.1246C90.4846 48.1404 90.1116 48.0311 89.8017 47.8136C89.592 47.6652 89.4484 47.441 89.4014 47.1885C89.3544 46.936 89.4077 46.6751 89.55 46.4612C89.6643 46.2959 89.8212 46.1646 90.004 46.0811C89.8608 45.9981 89.7432 45.8773 89.664 45.7319C89.5848 45.5866 89.547 45.4222 89.5549 45.2568C89.549 45.1133 89.5789 44.9705 89.6417 44.8413C89.7046 44.712 89.7986 44.6005 89.9152 44.5165C90.1959 44.3232 90.5324 44.2278 90.8728 44.245C91.1454 44.2265 91.4185 44.2759 91.6674 44.3887C91.9163 44.5015 92.1334 44.6743 92.2992 44.8916L91.8994 45.242C91.7799 45.0966 91.629 44.9802 91.458 44.9015C91.287 44.8228 91.1004 44.784 90.9122 44.788C90.4186 44.788 90.1718 44.9525 90.1718 45.2815C90.1685 45.3516 90.1815 45.4215 90.2098 45.4858C90.2381 45.55 90.2808 45.6068 90.3347 45.6517C90.477 45.7563 90.6525 45.8054 90.8283 45.7899H91.5243V46.3131H90.8431C90.6246 46.2991 90.4075 46.3581 90.2262 46.4809C90.1588 46.5312 90.1043 46.5969 90.0674 46.6724C90.0305 46.748 90.0122 46.8312 90.0139 46.9153C90.0075 47.01 90.0249 47.1048 90.0645 47.191C90.1042 47.2773 90.1649 47.3521 90.241 47.4089C90.4356 47.5355 90.6657 47.596 90.8974 47.5816C91.108 47.5891 91.3173 47.5454 91.5072 47.4543C91.6972 47.3632 91.8623 47.2273 91.9883 47.0584L92.3436 47.4089Z" fill="white"/>
<path d="M96.6872 47.5514V48.045C96.5909 48.0728 96.4913 48.0877 96.3911 48.0894C96.3025 48.0971 96.2132 48.0871 96.1284 48.06C96.0437 48.0329 95.9652 47.9892 95.8975 47.9314C95.7633 47.7927 95.665 47.6233 95.6112 47.4379L94.7573 44.9403L93.4247 48.04H92.8027L94.4908 44.2296L94.2095 43.43C94.1573 43.2334 94.0533 43.0544 93.9084 42.9117C93.7646 42.8102 93.5903 42.7614 93.4148 42.7735C93.321 42.7735 93.2025 42.7735 93.0495 42.7982V42.3046C93.2093 42.2555 93.3761 42.2338 93.5431 42.2404C93.7987 42.2289 94.0508 42.3036 94.2588 42.4527C94.4951 42.6535 94.6668 42.9197 94.7524 43.2177L96.1443 47.1664C96.2331 47.4181 96.3615 47.5464 96.5342 47.5464L96.6872 47.5514Z" fill="white"/>
<path d="M101.067 47.5422V48.0358C100.938 48.0685 100.805 48.0867 100.672 48.0901C100.52 48.1025 100.369 48.0654 100.24 47.9844C100.111 47.9035 100.011 47.783 99.9564 47.6409C99.8392 47.8002 99.6848 47.9284 99.5068 48.0144C99.3287 48.1004 99.1323 48.1417 98.9347 48.1345C98.7468 48.1434 98.5595 48.1079 98.3879 48.0307C98.2164 47.9535 98.0655 47.8368 97.9475 47.6903V49.4228H97.375V44.3389H97.9624V46.555C97.9515 46.8301 98.0469 47.0988 98.2289 47.3053C98.315 47.3994 98.4205 47.4736 98.5381 47.5231C98.6557 47.5725 98.7826 47.5959 98.91 47.5916C99.0374 47.5949 99.164 47.5711 99.2814 47.5217C99.3988 47.4724 99.5044 47.3986 99.5912 47.3053C99.7731 47.0988 99.8686 46.8301 99.8577 46.555V44.3389H100.445V47.0141C100.445 47.3892 100.583 47.5768 100.86 47.5768C100.93 47.5721 100.999 47.5605 101.067 47.5422Z" fill="white"/>
<path d="M105.843 47.542V48.0355C105.711 48.0684 105.575 48.0866 105.438 48.0898C105.25 48.1049 105.062 48.045 104.917 47.9231C104.772 47.8011 104.681 47.627 104.664 47.4383C104.517 47.6519 104.316 47.8223 104.081 47.9319C103.833 48.0505 103.561 48.1113 103.286 48.1096C103.044 48.1146 102.802 48.0673 102.579 47.9711C102.356 47.8749 102.156 47.7319 101.993 47.5518C101.656 47.1704 101.479 46.6735 101.5 46.1649C101.482 45.6596 101.658 45.1667 101.993 44.7878C102.157 44.6068 102.357 44.4633 102.581 44.367C102.805 44.2707 103.048 44.224 103.291 44.23C103.578 44.2274 103.86 44.2934 104.116 44.4225C104.355 44.543 104.557 44.7275 104.698 44.9556C104.698 44.8667 104.698 44.6545 104.738 44.3139H105.271C105.216 45.0839 105.192 45.6713 105.192 46.0809V47.0138C105.192 47.3742 105.325 47.5518 105.596 47.5518C105.679 47.5566 105.761 47.5533 105.843 47.542ZM104.259 47.2211C104.389 47.0844 104.49 46.9222 104.554 46.7446C104.619 46.5671 104.646 46.3781 104.634 46.1895C104.646 46.0006 104.62 45.8112 104.556 45.633C104.492 45.4547 104.393 45.2914 104.264 45.153C104.146 45.0335 104.005 44.9395 103.85 44.8766C103.695 44.8138 103.528 44.7836 103.36 44.7878C103.188 44.7824 103.016 44.8149 102.858 44.8832C102.699 44.9514 102.557 45.0536 102.442 45.1826C102.2 45.4533 102.071 45.8067 102.082 46.1698C102.074 46.5325 102.202 46.885 102.442 47.157C102.558 47.2849 102.7 47.3864 102.858 47.4546C103.017 47.5227 103.188 47.5559 103.36 47.5518C103.529 47.5627 103.697 47.539 103.856 47.4821C104.015 47.4252 104.16 47.3364 104.283 47.2211H104.259Z" fill="white"/>
<path d="M109.082 47.5422V48.0358C108.829 48.0911 108.571 48.1192 108.312 48.1197C107.453 48.1197 107.018 47.715 107.018 46.9154V44.8522H106.031V44.3389H109.027V44.867H107.616V46.8907C107.605 46.9931 107.618 47.0965 107.655 47.1926C107.692 47.2887 107.751 47.3747 107.828 47.4435C108.015 47.561 108.234 47.6163 108.455 47.6014C108.665 47.5951 108.874 47.5753 109.082 47.5422Z" fill="white"/>
<path d="M110.38 46.9252C110.369 47.0993 110.414 47.2723 110.509 47.4188C110.559 47.472 110.621 47.5134 110.689 47.5398C110.757 47.5663 110.83 47.5772 110.904 47.5718H111.17V48.0654C111.033 48.1017 110.892 48.1199 110.751 48.1197C110.114 48.1197 109.793 47.7446 109.793 46.9894V44.3389H110.38V46.9252Z" fill="white"/>
<path d="M117.182 46.2586C117.213 46.7582 117.048 47.2502 116.723 47.6307C116.58 47.7913 116.403 47.9187 116.205 48.0039C116.007 48.0892 115.793 48.1303 115.578 48.1243C115.454 47.92 115.28 47.7509 115.072 47.6336C114.864 47.5163 114.63 47.4547 114.391 47.4547C114.152 47.4547 113.917 47.5163 113.709 47.6336C113.501 47.7509 113.327 47.92 113.204 48.1243C112.988 48.131 112.773 48.0903 112.574 48.005C112.375 47.9197 112.198 47.792 112.054 47.6307C111.725 47.2541 111.558 46.7626 111.59 46.2635C111.568 45.8046 111.711 45.353 111.994 44.9908C112.276 44.6285 112.679 44.3796 113.13 44.2892L113.298 44.8074C112.983 44.9057 112.701 45.0883 112.483 45.3356C112.29 45.6185 112.187 45.9531 112.187 46.2956C112.187 46.6381 112.29 46.9727 112.483 47.2556C112.572 47.3628 112.684 47.449 112.81 47.5079C112.936 47.5668 113.074 47.5969 113.214 47.5962C113.332 47.5985 113.45 47.5744 113.559 47.5258C113.667 47.4772 113.763 47.4051 113.841 47.3148C114.014 47.1006 114.102 46.8299 114.087 46.5547V45.1579H114.675V46.5547C114.659 46.8292 114.745 47.0999 114.917 47.3148C114.993 47.4059 115.089 47.4785 115.198 47.5273C115.306 47.576 115.424 47.5995 115.543 47.5962C115.683 47.598 115.821 47.5683 115.948 47.5093C116.074 47.4504 116.186 47.3637 116.274 47.2556C116.488 46.9726 116.593 46.6223 116.57 46.2684C116.591 45.9285 116.49 45.5921 116.284 45.3208C116.06 45.0765 115.776 44.8959 115.459 44.7976L115.642 44.2793C116.094 44.3679 116.499 44.6171 116.782 44.9808C117.065 45.3446 117.207 45.7984 117.182 46.2586ZM114.571 43.7265H114.112V42.0977H114.823V42.2062L114.571 43.7265Z" fill="white"/>
<path d="M121.205 44.3389L119.462 48.1345H119.25L117.498 44.3389H118.105L119.339 47.1375L120.573 44.3389H121.205Z" fill="white"/>
<path d="M127.636 45.7604C127.83 46.0445 127.918 46.3871 127.886 46.7293C127.855 47.0715 127.705 47.392 127.463 47.636C127.145 47.9186 126.728 48.0641 126.304 48.0408H124.23V43.0112H125.958C126.333 42.9899 126.701 43.1116 126.99 43.3517C127.116 43.4671 127.217 43.6083 127.284 43.7659C127.351 43.9234 127.384 44.0936 127.38 44.2649C127.385 44.4573 127.343 44.6481 127.256 44.8203C127.17 44.9925 127.043 45.1408 126.886 45.252C127.188 45.3283 127.453 45.5082 127.636 45.7604ZM124.823 43.5443V45.1089H125.899C126.137 45.1243 126.373 45.0464 126.555 44.8917C126.701 44.7385 126.782 44.5354 126.782 44.3241C126.782 44.1129 126.701 43.9097 126.555 43.7565C126.372 43.6035 126.137 43.5275 125.899 43.5443H124.823ZM126.99 47.2511C127.167 47.0718 127.267 46.8296 127.267 46.5773C127.267 46.325 127.167 46.0829 126.99 45.9036C126.778 45.7216 126.503 45.6294 126.225 45.6469H124.803V47.5077H126.225C126.503 47.5252 126.778 47.4331 126.99 47.2511Z" fill="white"/>
<path d="M129.348 46.9252C129.336 47.1001 129.383 47.2739 129.481 47.4188C129.532 47.472 129.593 47.5134 129.662 47.5398C129.73 47.5663 129.803 47.5772 129.876 47.5718H130.143V48.0654C130.006 48.1014 129.865 48.1197 129.723 48.1197C129.082 48.1197 128.766 47.7446 128.766 46.9894V44.3389H129.348V46.9252Z" fill="white"/>
<path d="M133.806 44.832C133.989 45.0119 134.134 45.2272 134.232 45.4648C134.329 45.7023 134.378 45.9572 134.374 46.214C134.379 46.47 134.33 46.7241 134.232 46.9603C134.133 47.1966 133.986 47.4097 133.801 47.5862C133.621 47.7689 133.405 47.913 133.168 48.0097C132.93 48.1064 132.675 48.1538 132.419 48.1489C132.165 48.1535 131.912 48.106 131.677 48.0092C131.442 47.9124 131.229 47.7684 131.052 47.5862C130.693 47.2176 130.492 46.7235 130.492 46.2091C130.492 45.6947 130.693 45.2006 131.052 44.832C131.42 44.4732 131.914 44.2725 132.429 44.2725C132.943 44.2725 133.437 44.4732 133.806 44.832ZM131.471 45.217C131.228 45.4885 131.094 45.84 131.094 46.2042C131.094 46.5684 131.228 46.9199 131.471 47.1913C131.597 47.3186 131.746 47.4197 131.911 47.4887C132.076 47.5577 132.253 47.5933 132.431 47.5933C132.61 47.5933 132.787 47.5577 132.952 47.4887C133.117 47.4197 133.266 47.3186 133.391 47.1913C133.634 46.9199 133.768 46.5684 133.768 46.2042C133.768 45.84 133.634 45.4885 133.391 45.217C133.267 45.0886 133.118 44.9866 132.954 44.9169C132.789 44.8471 132.612 44.8112 132.434 44.8112C132.255 44.8112 132.078 44.8471 131.914 44.9169C131.749 44.9866 131.601 45.0886 131.476 45.217H131.471Z" fill="white"/>
<path d="M137.769 47.5422V48.0358C137.516 48.0911 137.258 48.1192 136.999 48.1197C136.135 48.1197 135.706 47.715 135.706 46.9154V44.8522H134.719V44.3389H137.715V44.867H136.303V46.8907C136.291 46.9931 136.304 47.097 136.341 47.1933C136.378 47.2896 136.438 47.3754 136.515 47.4435C136.702 47.5616 136.922 47.617 137.142 47.6014C137.352 47.5951 137.562 47.5753 137.769 47.5422Z" fill="white"/>
<path d="M141.342 47.4089C141.172 47.6402 140.949 47.8265 140.69 47.9513C140.432 48.076 140.147 48.1356 139.861 48.1246C139.483 48.1404 139.11 48.0311 138.8 47.8136C138.59 47.6652 138.446 47.441 138.399 47.1885C138.352 46.936 138.406 46.6751 138.548 46.4612C138.662 46.2959 138.819 46.1646 139.002 46.0811C138.859 45.9981 138.741 45.8773 138.662 45.7319C138.583 45.5866 138.545 45.4222 138.553 45.2568C138.547 45.1133 138.577 44.9705 138.64 44.8413C138.703 44.712 138.797 44.6005 138.913 44.5165C139.194 44.3232 139.53 44.2278 139.871 44.245C140.143 44.2265 140.417 44.2759 140.665 44.3887C140.914 44.5015 141.131 44.6743 141.297 44.8916L140.897 45.242C140.778 45.0966 140.627 44.9802 140.456 44.9015C140.285 44.8228 140.098 44.784 139.91 44.788C139.417 44.788 139.17 44.9525 139.17 45.2815C139.167 45.3516 139.18 45.4215 139.208 45.4858C139.236 45.55 139.279 45.6068 139.333 45.6517C139.475 45.7563 139.651 45.8054 139.826 45.7899H140.522V46.3131H139.821C139.603 46.2991 139.386 46.3581 139.204 46.4809C139.137 46.5312 139.083 46.5969 139.046 46.6724C139.009 46.748 138.99 46.8312 138.992 46.9153C138.986 47.01 139.003 47.1048 139.043 47.191C139.083 47.2773 139.143 47.3521 139.219 47.4089C139.414 47.5355 139.644 47.596 139.876 47.5816C140.086 47.5891 140.296 47.5454 140.486 47.4543C140.676 47.3632 140.841 47.2273 140.967 47.0584L141.342 47.4089Z" fill="white"/>
<path d="M145.479 48.9244V49.418C145.379 49.4501 145.273 49.4651 145.168 49.4624C145.004 49.4589 144.845 49.4069 144.71 49.3129C144.576 49.2189 144.472 49.0871 144.413 48.9342L143.613 47.3005L142.463 49.4032H141.797L143.302 46.7526L142.483 45.1188C142.447 45.0285 142.385 44.9509 142.305 44.8956C142.225 44.8402 142.131 44.8097 142.034 44.8079H141.851V44.3143C141.948 44.2821 142.05 44.267 142.152 44.2699C142.33 44.2741 142.503 44.3333 142.646 44.4393C142.789 44.5453 142.896 44.693 142.952 44.8622L143.618 46.2343L144.674 44.3143H145.321L143.914 46.7822L144.837 48.6085C144.873 48.6973 144.933 48.7739 145.011 48.8291C145.089 48.8843 145.181 48.9157 145.277 48.9194L145.479 48.9244Z" fill="white"/>
<path d="M149.565 44.3389L147.818 48.1345H147.606L145.854 44.3389H146.475L147.709 47.1375L148.938 44.3389H149.565Z" fill="white"/>
<path d="M155.459 46.2586C155.49 46.7582 155.326 47.2502 155 47.6307C154.857 47.7913 154.68 47.9187 154.482 48.0039C154.285 48.0892 154.071 48.1303 153.855 48.1243C153.732 47.9199 153.559 47.7507 153.351 47.6333C153.144 47.5159 152.909 47.4541 152.671 47.4541C152.432 47.4541 152.198 47.5159 151.99 47.6333C151.783 47.7507 151.609 47.9199 151.486 48.1243C151.269 48.1317 151.053 48.0913 150.854 48.006C150.654 47.9207 150.476 47.7926 150.331 47.6307C150.002 47.2541 149.835 46.7626 149.867 46.2635C149.845 45.8046 149.988 45.353 150.271 44.9908C150.554 44.6285 150.957 44.3796 151.407 44.2892L151.575 44.8074C151.26 44.9057 150.979 45.0883 150.76 45.3356C150.554 45.6048 150.45 45.9393 150.469 46.2783C150.448 46.6328 150.555 46.9832 150.77 47.2655C150.859 47.3727 150.971 47.4589 151.097 47.5178C151.224 47.5767 151.362 47.6068 151.501 47.606C151.62 47.6087 151.738 47.5848 151.846 47.5361C151.955 47.4875 152.051 47.4152 152.128 47.3247C152.301 47.1105 152.389 46.8397 152.375 46.5646V45.1677H152.962V46.5646C152.946 46.8391 153.032 47.1098 153.204 47.3247C153.281 47.4152 153.377 47.4875 153.485 47.5361C153.594 47.5848 153.712 47.6087 153.831 47.606C153.97 47.6079 154.108 47.5782 154.235 47.5192C154.361 47.4603 154.473 47.3735 154.561 47.2655C154.775 46.9825 154.88 46.6322 154.857 46.2783C154.878 45.9383 154.777 45.602 154.571 45.3306C154.348 45.0852 154.064 44.9045 153.747 44.8074L153.929 44.2892C154.378 44.3796 154.779 44.6282 155.06 44.9897C155.341 45.3512 155.483 45.8014 155.459 46.2586ZM152.848 43.7265H152.389V42.0977H153.1V42.2062L152.848 43.7265Z" fill="white"/>
<path d="M159.482 44.3389L157.74 48.1345H157.528L155.775 44.3389H156.397L157.631 47.1375L158.86 44.3389H159.482Z" fill="white"/>
<path d="M71.559 53.3954H68.9332V54.9354H70.9421V55.4684H68.9332V57.3589H71.6528V57.8919H68.3359V52.8623H71.559V53.3954Z" fill="white"/>
<path d="M76.1502 57.3938V57.8874C76.0209 57.9199 75.8885 57.9381 75.7553 57.9417C75.6028 57.9545 75.4503 57.9171 75.3211 57.8351C75.1918 57.7531 75.093 57.6311 75.0396 57.4876C74.9221 57.6466 74.7677 57.7745 74.5897 57.8605C74.4117 57.9465 74.2155 57.9879 74.0179 57.9812C73.83 57.9901 73.6427 57.9545 73.4711 57.8773C73.2996 57.8001 73.1487 57.6835 73.0307 57.537V59.2694H72.4434V54.1855H73.0307V56.4017C73.0191 56.6754 73.1147 56.9428 73.2972 57.147C73.3848 57.2389 73.4901 57.312 73.6068 57.3619C73.7234 57.4119 73.849 57.4376 73.9759 57.4376C74.1028 57.4376 74.2284 57.4119 74.3451 57.3619C74.4617 57.312 74.567 57.2389 74.6546 57.147C74.8403 56.9444 74.938 56.6763 74.9261 56.4017V54.1855H75.5135V56.8608C75.5135 57.2359 75.6516 57.4234 75.9231 57.4234C75.9994 57.4191 76.0753 57.4092 76.1502 57.3938Z" fill="white"/>
<path d="M79.5008 57.695C79.3424 57.4877 79.2652 57.2297 79.2836 56.9695V54.7039H77.4721V57.8875H76.8848V54.1758H79.8463V56.925C79.8463 57.2508 79.9795 57.4186 80.251 57.4186C80.3271 57.4152 80.403 57.407 80.4781 57.394V57.8875C80.3488 57.92 80.2164 57.9382 80.0832 57.9418C79.9741 57.9449 79.8656 57.9245 79.7651 57.8819C79.6646 57.8393 79.5744 57.7756 79.5008 57.695Z" fill="white"/>
<path d="M84.2046 54.659C84.3882 54.8387 84.5332 55.0539 84.6308 55.2915C84.7283 55.5292 84.7765 55.7842 84.7722 56.041C84.7771 56.2969 84.7288 56.5511 84.6302 56.7873C84.5316 57.0235 84.385 57.2367 84.1997 57.4132C84.0201 57.5952 83.8055 57.739 83.5688 57.8357C83.3321 57.9324 83.0783 57.9801 82.8226 57.9759C82.3081 57.9759 81.8147 57.7715 81.451 57.4077C81.0872 57.0439 80.8828 56.5506 80.8828 56.0361C80.8828 55.5216 81.0872 55.0282 81.451 54.6645C81.8147 54.3007 82.3081 54.0963 82.8226 54.0963C83.0791 54.0914 83.3339 54.1388 83.5715 54.2355C83.8091 54.3322 84.0245 54.4763 84.2046 54.659ZM81.87 55.039C81.617 55.3048 81.4787 55.6594 81.485 56.0262C81.4805 56.2081 81.5122 56.389 81.5783 56.5585C81.6444 56.7279 81.7436 56.8826 81.87 57.0134C81.9912 57.1439 82.1389 57.247 82.3032 57.316C82.4675 57.3849 82.6445 57.418 82.8226 57.4132C83.0067 57.4215 83.1903 57.3896 83.3608 57.3197C83.5313 57.2498 83.6845 57.1436 83.8098 57.0085C83.9362 56.8776 84.0353 56.723 84.1014 56.5535C84.1675 56.384 84.1992 56.2031 84.1947 56.0213C84.201 55.6544 84.0628 55.2998 83.8098 55.0341C83.6845 54.9076 83.5353 54.8071 83.3709 54.7385C83.2066 54.67 83.0303 54.6347 82.8522 54.6347C82.6741 54.6347 82.4978 54.67 82.3334 54.7385C82.1691 54.8071 82.0199 54.9076 81.8947 55.0341L81.87 55.039ZM83.252 52.0529L83.0052 53.578H82.5659V51.9492H83.2717L83.252 52.0529Z" fill="white"/>
<path d="M88.8194 54.6499C88.995 54.8336 89.1321 55.0504 89.2228 55.2877C89.3135 55.525 89.3559 55.778 89.3476 56.0319C89.3667 56.5389 89.19 57.0338 88.854 57.414C88.692 57.5957 88.4925 57.7401 88.2692 57.8373C88.0459 57.9344 87.8042 57.982 87.5608 57.9767C87.2932 57.9793 87.0284 57.9219 86.7859 57.8088C86.5559 57.7077 86.3555 57.5497 86.2035 57.3498V59.2649H85.626V56.0566C85.5977 55.5379 85.7751 55.0289 86.1196 54.64C86.29 54.4596 86.4972 54.3178 86.727 54.2241C86.9569 54.1305 87.2042 54.0871 87.4522 54.0971C87.7062 54.0879 87.9592 54.1324 88.1948 54.2276C88.4304 54.3229 88.6433 54.4668 88.8194 54.6499ZM88.3802 57.0389C88.6165 56.7585 88.7461 56.4036 88.7461 56.0369C88.7461 55.6702 88.6165 55.3153 88.3802 55.0349C88.1392 54.7897 87.8123 54.648 87.4686 54.6397C87.125 54.6314 86.7916 54.7572 86.5391 54.9905C86.4091 55.1281 86.3094 55.2914 86.2464 55.47C86.1835 55.6485 86.1588 55.8383 86.1738 56.027C86.1607 56.2182 86.1867 56.4101 86.2504 56.5909C86.314 56.7717 86.414 56.9376 86.544 57.0783C86.663 57.1938 86.8036 57.2847 86.9578 57.3456C87.1119 57.4066 87.2766 57.4366 87.4424 57.4337C87.6178 57.4384 87.7921 57.4055 87.9539 57.3374C88.1156 57.2694 88.2609 57.1676 88.3802 57.0389Z" fill="white"/>
<path d="M95.637 56.1102C95.6685 56.6107 95.5018 57.1036 95.173 57.4823C95.0283 57.6414 94.8513 57.7677 94.6538 57.8528C94.4563 57.9379 94.2429 57.9799 94.0279 57.9759C93.7859 57.991 93.5448 57.9356 93.3337 57.8165C93.1226 57.6974 92.9505 57.5196 92.8384 57.3046C92.7294 57.52 92.5594 57.6985 92.3496 57.8179C92.1398 57.9373 91.8995 57.9922 91.6587 57.9759C91.4422 57.98 91.2273 57.9382 91.0282 57.8531C90.8291 57.768 90.6504 57.6416 90.5037 57.4823C90.2864 57.2093 90.1399 56.8868 90.0773 56.5435C90.0147 56.2002 90.0379 55.8467 90.1449 55.5146C90.2519 55.1824 90.4393 54.8818 90.6905 54.6395C90.9417 54.3973 91.2488 54.2209 91.5847 54.126L91.7525 54.6442C91.4431 54.7545 91.1688 54.9454 90.9578 55.1971C90.7527 55.4669 90.6511 55.8014 90.6715 56.1398C90.6461 56.4948 90.7534 56.8466 90.9726 57.127C91.0607 57.2341 91.1715 57.3202 91.297 57.3791C91.4225 57.4381 91.5595 57.4683 91.6982 57.4675C91.8177 57.4702 91.9364 57.4464 92.0456 57.3977C92.1549 57.3491 92.252 57.2768 92.33 57.1862C92.5025 56.9715 92.5903 56.7011 92.5768 56.4261V55.0292H93.1641V56.4261C93.1492 56.7005 93.2353 56.9708 93.406 57.1862C93.4825 57.2773 93.5787 57.3499 93.6872 57.3986C93.7958 57.4473 93.9139 57.4709 94.0328 57.4675C94.1722 57.4686 94.3102 57.4386 94.4365 57.3797C94.5629 57.3208 94.6746 57.2345 94.7633 57.127C94.9771 56.844 95.0822 56.4937 95.0595 56.1398C95.0793 55.7992 94.9759 55.4628 94.7683 55.1921C94.5474 54.9469 94.2643 54.7661 93.9489 54.6689L94.1315 54.1507C94.5735 54.2469 94.9671 54.4965 95.2426 54.8551C95.5181 55.2138 95.6578 55.6584 95.637 56.1102Z" fill="white"/>
<path d="M99.659 54.1807L97.9117 57.9763H97.6995L95.9473 54.1807H96.5741L97.8081 56.9793L99.0322 54.1807H99.659Z" fill="white"/>
<path d="M105.908 53.3954H103.297V54.9354H105.272V55.4684H103.297V57.3589H106.017V57.8919H102.705V52.8623H105.928L105.908 53.3954Z" fill="white"/>
<path d="M110.424 57.4039V57.8975C110.328 57.9253 110.228 57.9402 110.128 57.9419C110.04 57.9496 109.95 57.9396 109.866 57.9125C109.781 57.8854 109.702 57.8417 109.635 57.784C109.5 57.6452 109.402 57.4758 109.348 57.2904L108.494 54.7928L107.157 57.9024H106.555L108.248 54.092L107.961 53.2923C107.912 53.0947 107.808 52.915 107.66 52.7741C107.517 52.6726 107.342 52.6238 107.167 52.6359C107.073 52.6359 106.954 52.6359 106.801 52.6359V52.1423C106.962 52.0988 107.129 52.0789 107.295 52.0831C107.551 52.0723 107.802 52.1469 108.011 52.2953C108.246 52.4975 108.417 52.7631 108.504 53.0604L109.896 57.009C109.985 57.2608 110.113 57.3891 110.286 57.3891L110.424 57.4039Z" fill="white"/>
<path d="M114.754 57.404V57.8976C114.657 57.9254 114.558 57.9404 114.458 57.942C114.369 57.95 114.28 57.9401 114.195 57.913C114.11 57.8859 114.032 57.8421 113.964 57.7841C113.83 57.6454 113.732 57.4759 113.678 57.2905L112.824 54.793L111.481 57.9026H110.859L112.547 54.0921L112.266 53.2925C112.217 53.0948 112.112 52.9151 111.965 52.7742C111.821 52.6728 111.647 52.624 111.471 52.636C111.378 52.636 111.254 52.636 111.106 52.636V52.1424C111.267 52.0981 111.433 52.0782 111.6 52.0832C111.855 52.0716 112.107 52.1464 112.315 52.2954C112.55 52.4976 112.722 52.7633 112.809 53.0605L114.201 57.0092C114.29 57.2609 114.418 57.3892 114.591 57.3892L114.754 57.404Z" fill="white"/>
<path d="M119.462 57.3934V57.887C119.329 57.9198 119.194 57.938 119.057 57.9413C118.868 57.9565 118.68 57.8967 118.534 57.7749C118.388 57.653 118.296 57.4789 118.277 57.2898C118.134 57.5061 117.932 57.6772 117.695 57.7834C117.448 57.9062 117.176 57.9688 116.9 57.966C116.657 57.971 116.416 57.9237 116.193 57.8275C115.97 57.7313 115.77 57.5883 115.607 57.4082C115.276 57.0239 115.094 56.5335 115.094 56.0262C115.094 55.5189 115.276 55.0285 115.607 54.6442C115.769 54.4633 115.969 54.3198 116.192 54.2235C116.416 54.1273 116.657 54.0805 116.9 54.0864C117.188 54.0832 117.472 54.1493 117.729 54.2789C117.969 54.3994 118.171 54.5839 118.312 54.812C118.312 54.7232 118.312 54.5109 118.346 54.1703H118.904C118.855 54.9354 118.83 55.5277 118.83 55.9374V56.8653C118.83 57.2306 118.963 57.4082 119.23 57.4082C119.307 57.4077 119.385 57.4027 119.462 57.3934ZM117.877 57.0726C118.117 56.7812 118.248 56.4157 118.248 56.0385C118.248 55.6614 118.117 55.2959 117.877 55.0045C117.761 54.8847 117.621 54.7903 117.467 54.7275C117.312 54.6646 117.146 54.6345 116.979 54.6392C116.806 54.6332 116.635 54.6654 116.476 54.7337C116.317 54.802 116.175 54.9046 116.061 55.0341C115.817 55.304 115.686 55.6575 115.696 56.0213C115.689 56.3846 115.819 56.7372 116.061 57.0084C116.176 57.1372 116.318 57.2392 116.476 57.3074C116.635 57.3756 116.807 57.4084 116.979 57.4033C117.143 57.4102 117.307 57.3846 117.461 57.3278C117.616 57.2711 117.757 57.1843 117.877 57.0726ZM117.28 53.578H116.826V51.9492H117.532V52.0529L117.28 53.578Z" fill="white"/>
<path d="M123.697 56.0069C123.702 56.2675 123.654 56.5263 123.556 56.768C123.459 57.0096 123.313 57.2291 123.129 57.4134C122.945 57.5977 122.725 57.7429 122.484 57.8405C122.242 57.9381 121.983 57.9859 121.723 57.9812C121.466 57.9866 121.212 57.9389 120.975 57.8412C120.738 57.7435 120.523 57.598 120.345 57.4136C120.164 57.2338 120.021 57.019 119.925 56.7823C119.829 56.5456 119.783 56.2919 119.788 56.0365C119.781 55.784 119.828 55.5329 119.924 55.2992C120.02 55.0655 120.163 54.8544 120.345 54.6792C120.525 54.5008 120.738 54.3603 120.973 54.2662C121.208 54.1721 121.46 54.1262 121.713 54.1313H121.762L119.96 52.3593V52.1816H123.465V52.6999H121.145L122.942 54.4965C123.164 54.6834 123.346 54.9138 123.476 55.1736C123.605 55.4333 123.681 55.7169 123.697 56.0069ZM122.71 57.0336C122.836 56.9028 122.935 56.7481 123.001 56.5786C123.067 56.4092 123.099 56.2282 123.095 56.0464C123.101 55.8643 123.07 55.6829 123.004 55.5132C122.938 55.3435 122.837 55.189 122.71 55.0592C122.584 54.9327 122.435 54.8322 122.271 54.7637C122.107 54.6951 121.93 54.6598 121.752 54.6598C121.574 54.6598 121.398 54.6951 121.233 54.7637C121.069 54.8322 120.92 54.9327 120.795 55.0592C120.668 55.1898 120.569 55.3445 120.504 55.5141C120.439 55.6837 120.408 55.8648 120.415 56.0464C120.409 56.2279 120.44 56.4086 120.506 56.5781C120.571 56.7475 120.669 56.9023 120.795 57.0336C120.92 57.1595 121.069 57.2594 121.234 57.3276C121.398 57.3958 121.574 57.4309 121.752 57.4309C121.93 57.4309 122.106 57.3958 122.27 57.3276C122.435 57.2594 122.584 57.1595 122.71 57.0336Z" fill="white"/>
<path d="M128.756 57.3934V57.887C128.624 57.9198 128.488 57.938 128.351 57.9413C128.163 57.9564 127.975 57.8965 127.83 57.7746C127.685 57.6526 127.594 57.4785 127.576 57.2898C127.432 57.505 127.23 57.6759 126.994 57.7834C126.746 57.9063 126.472 57.9689 126.194 57.966C125.952 57.9715 125.712 57.9246 125.489 57.8283C125.267 57.732 125.068 57.5887 124.906 57.4083C124.576 57.0235 124.395 56.5332 124.395 56.0262C124.395 55.5192 124.576 55.029 124.906 54.6442C125.069 54.4633 125.268 54.3198 125.492 54.2236C125.715 54.1273 125.956 54.0805 126.199 54.0864C126.487 54.0833 126.772 54.1493 127.029 54.2789C127.268 54.3994 127.47 54.5839 127.611 54.812C127.611 54.7232 127.611 54.5109 127.651 54.1704H128.203C128.154 54.9354 128.129 55.5277 128.129 55.9374V56.8653C128.129 57.2306 128.263 57.4083 128.534 57.4083L128.756 57.3934ZM127.172 57.0726C127.413 56.782 127.545 56.4162 127.545 56.0385C127.545 55.6609 127.413 55.2951 127.172 55.0045C127.054 54.885 126.913 54.791 126.758 54.7281C126.603 54.6653 126.436 54.6351 126.268 54.6392C126.096 54.6339 125.924 54.6664 125.766 54.7347C125.607 54.8029 125.465 54.9051 125.35 55.0341C125.106 55.3041 124.976 55.6575 124.985 56.0213C124.978 56.3846 125.109 56.7372 125.35 57.0085C125.466 57.1364 125.608 57.2379 125.766 57.306C125.925 57.3742 126.096 57.4074 126.268 57.4033C126.433 57.4109 126.598 57.3856 126.753 57.3288C126.908 57.272 127.051 57.1849 127.172 57.0726Z" fill="white"/>
<path d="M131.85 58.613C131.859 58.5282 131.847 58.4425 131.815 58.3633C131.783 58.2842 131.733 58.214 131.667 58.1589C131.476 58.044 131.268 57.9606 131.05 57.9122C130.868 57.8628 130.71 57.8184 130.587 57.774C130.424 57.712 130.267 57.6361 130.118 57.5469C129.947 57.4567 129.794 57.3382 129.664 57.1965C129.532 57.0525 129.428 56.8851 129.358 56.7029C129.267 56.472 129.223 56.2253 129.229 55.9773C129.216 55.725 129.256 55.4727 129.347 55.2371C129.438 55.0014 129.578 54.7877 129.757 54.6101C130.118 54.2779 130.595 54.1006 131.085 54.1165C131.398 54.1047 131.708 54.1751 131.985 54.3206C132.262 54.4661 132.497 54.6816 132.665 54.9457L132.25 55.2814C132.121 55.0903 131.948 54.9337 131.745 54.8252C131.542 54.7168 131.315 54.6599 131.085 54.6594C130.92 54.6533 130.755 54.6808 130.6 54.7402C130.446 54.7996 130.305 54.8896 130.187 55.0049C130.066 55.1323 129.973 55.2829 129.913 55.4476C129.852 55.6122 129.826 55.7874 129.836 55.9625C129.834 56.1433 129.868 56.3228 129.935 56.4906C129.985 56.6249 130.057 56.7499 130.147 56.8608C130.246 56.9605 130.359 57.0453 130.483 57.1126C130.596 57.1761 130.713 57.2322 130.833 57.2804L131.194 57.3939L131.579 57.5074C131.692 57.5448 131.803 57.591 131.909 57.6456C132.019 57.6934 132.118 57.7621 132.201 57.848C132.274 57.9344 132.333 58.0329 132.373 58.1392C132.425 58.2695 132.452 58.4085 132.452 58.5489C132.453 58.8079 132.383 59.0622 132.25 59.2843H131.672C131.782 59.0769 131.843 58.8474 131.85 58.613Z" fill="white"/>
<path d="M27.5016 49.6543H25.1521C25.1521 44.9999 21.3219 42.1568 17.2548 39.146C16.4552 38.5487 15.626 37.9317 14.8362 37.3098C10.0485 33.5092 7.71875 29.1114 7.71875 23.8547C7.71875 20.1035 9.99911 15.9574 13.2716 13.7511C14.6279 12.8148 16.1993 12.2372 17.8392 12.0724C19.4791 11.9075 21.1341 12.1607 22.6496 12.8084L32.5608 16.8508V23.761H30.2459V18.4303L21.8007 14.9752C20.6384 14.472 19.3665 14.2754 18.1065 14.4042C16.8466 14.5329 15.6407 14.9827 14.6042 15.7106C11.9438 17.4925 10.0929 20.8439 10.0929 23.8597C10.0929 28.3513 12.1265 32.1469 16.317 35.4688C17.0771 36.0709 17.8915 36.678 18.6763 37.2605C23.0149 40.4786 27.5016 43.8153 27.5016 49.6543Z" fill="white"/>
<path d="M44.6293 41.3478H36.6875V38.9934H42.1613C41.6678 36.6292 39.7674 35.0448 37.1663 35.0448H31.416V32.6953H37.1564C41.4802 32.6953 44.6194 35.8296 44.6194 40.1533L44.6293 41.3478Z" fill="white"/>
<path d="M34.3098 59.8522H11.1706C8.62648 59.8483 6.18737 58.8373 4.38654 57.0402C2.58571 55.243 1.56968 52.806 1.56055 50.2619C1.56055 47.4682 2.86854 44.9213 4.02846 42.6706C4.86262 41.0417 5.65235 39.5018 5.88927 38.0605L8.20912 38.4406C7.9179 40.2471 7.00477 42.024 6.12125 43.7466C5.04031 45.8542 3.91988 48.0358 3.91988 50.2619C3.92249 52.1854 4.68776 54.0294 6.0479 55.3895C7.40803 56.7497 9.25202 57.5149 11.1755 57.5176H31.8468C31.3532 55.1533 29.4529 53.5689 26.8518 53.5689H25.1588V40.0694C25.1588 35.9924 23.446 34.5462 20.3315 31.9203C19.7195 31.4267 19.0877 30.869 18.4066 30.2668C15.0601 27.2757 14.5566 24.2599 14.7244 22.2609C15.0107 18.8058 17.4589 15.41 21.4371 12.8828L22.6909 14.8571C19.3444 16.9647 17.291 19.7189 17.0689 22.4139C16.8912 24.5511 17.8685 26.5896 19.9761 28.4702C20.6277 29.0526 21.2496 29.5758 21.8468 30.0842C25.0107 32.7545 27.5132 34.8621 27.5132 40.025V51.249C31.4964 51.5501 34.3197 54.5857 34.3197 58.6874L34.3098 59.8522Z" fill="white"/>
<path d="M27.1565 48.6923L25.4931 47.0289C28.9482 43.5738 30.2365 40.0496 30.2365 34.0328C30.2365 30.9183 27.9956 28.7811 25.6264 26.5205C23.3707 24.3734 21.041 22.1523 21.041 19.0477C21.041 15.5185 21.041 13.9045 21.041 13.8848L23.3954 13.9095C23.3954 13.9095 23.3954 15.5333 23.3954 19.0477C23.3954 21.1454 25.1822 22.8483 27.2503 24.8176C29.7528 27.2017 32.5909 29.9065 32.5909 34.0328C32.5909 40.6715 31.0706 44.7831 27.1565 48.6923Z" fill="white"/>
<path d="M21.036 58.6767H18.6817V53.4892C18.6817 51.6565 17.9536 49.8989 16.6577 48.6029C15.3618 47.307 13.6042 46.579 11.7715 46.579V44.2246C14.2226 44.2272 16.5725 45.2021 18.3057 46.9353C20.0388 48.6684 21.0137 51.0184 21.0163 53.4694L21.036 58.6767Z" fill="white"/>
<path d="M43.4545 59.9951L42.9165 59.7237C36.0063 56.1946 35.1426 51.0711 35.1426 47.004V44.931H37.497V47.004C37.497 50.6713 38.2324 54.4522 43.4545 57.3693C48.6717 54.4769 49.4121 50.696 49.4121 47.004V41.3476H35.1821V38.9932H51.7467V47.004C51.7467 51.0711 50.8632 56.1946 43.9728 59.7237L43.4545 59.9951Z" fill="white"/>
<path d="M7.611 40.5085L6.55966 40.2568C6.39678 40.2173 2.56658 39.2697 0.883456 36.2292C-0.799663 33.1887 0.419489 29.4473 0.468848 29.2894L0.809406 28.2578L1.86568 28.5145C2.02856 28.554 5.85877 29.5016 7.53695 32.5372C9.21513 35.5727 8.00585 39.324 7.95156 39.4819L7.611 40.5085ZM2.44811 31.2094C2.29016 32.2608 2.23587 33.8205 2.94169 35.089C3.66565 36.2133 4.72888 37.0777 5.97722 37.5569C6.13023 36.5056 6.18453 34.9459 5.48364 33.6774C4.78275 32.4088 3.42047 31.6339 2.44811 31.2094Z" fill="white"/>
<path d="M67.4427 1.61875H67.0527L67.1366 0.202148H67.6993L67.4427 1.61875ZM71.1001 1.0758H68.7803V2.43316H70.5522V2.90205H68.7803V4.57037H71.1791V5.03928H68.2521V0.597024H71.0952L71.1001 1.0758Z" fill="white"/>
<path d="M74.2606 4.60471V5.03906C74.0369 5.08833 73.8085 5.11315 73.5794 5.1131C72.8193 5.1131 72.4392 4.75772 72.4392 4.0519V2.23057H71.5508V1.7666H74.1767V2.23057H72.9328V4.01734C72.9226 4.1086 72.9343 4.20099 72.9669 4.28683C72.9995 4.37267 73.0521 4.44949 73.1204 4.51092C73.2859 4.61321 73.4791 4.66151 73.6732 4.64913C73.8696 4.64468 74.0657 4.62986 74.2606 4.60471Z" fill="white"/>
<path d="M77.7253 2.19191C78.046 2.51465 78.226 2.95116 78.226 3.40614C78.226 3.86112 78.046 4.29762 77.7253 4.62035C77.5669 4.78057 77.3776 4.90693 77.1689 4.99177C76.9602 5.07662 76.7364 5.11818 76.5111 5.11393C76.2296 5.1129 75.9527 5.0425 75.7049 4.90896C75.4571 4.77542 75.246 4.58286 75.0904 4.34831C74.9347 4.11377 74.8393 3.84447 74.8125 3.56424C74.7857 3.28402 74.8284 3.00151 74.9368 2.74171C75.0452 2.48191 75.2159 2.25284 75.4339 2.07475C75.6519 1.89667 75.9105 1.77507 76.1867 1.72071C76.4629 1.66635 76.7482 1.68091 77.0175 1.7631C77.2867 1.84529 77.5315 1.99257 77.7303 2.19191H77.7253ZM75.6671 2.52756C75.4479 2.76766 75.3264 3.08103 75.3264 3.40614C75.3264 3.73125 75.4479 4.04462 75.6671 4.28472C75.774 4.39954 75.9041 4.4902 76.0488 4.55064C76.1935 4.61108 76.3494 4.63989 76.5062 4.63516C76.6648 4.63909 76.8224 4.60947 76.9687 4.54823C77.115 4.48698 77.2467 4.39549 77.3552 4.27978C77.574 4.04049 77.6954 3.72795 77.6954 3.40367C77.6954 3.07939 77.574 2.76685 77.3552 2.52756C77.2453 2.41503 77.114 2.3256 76.9691 2.26455C76.8241 2.20349 76.6684 2.17204 76.5111 2.17204C76.3539 2.17204 76.1982 2.20349 76.0532 2.26455C75.9083 2.3256 75.777 2.41503 75.6671 2.52756Z" fill="white"/>
<path d="M81.2088 5.67585C81.2174 5.60089 81.207 5.52496 81.1786 5.45509C81.1501 5.38521 81.1045 5.32363 81.0459 5.27603C80.879 5.1726 80.6952 5.09912 80.503 5.05887C80.3401 5.01445 80.2068 4.97496 80.0983 4.93547C79.9552 4.88049 79.8165 4.81447 79.6836 4.73803C79.5329 4.65686 79.3962 4.55186 79.2789 4.42708C79.1635 4.29484 79.0731 4.14262 79.0124 3.97792C78.9323 3.7754 78.8938 3.55889 78.8989 3.34119C78.8866 3.11832 78.9217 2.89538 79.0016 2.68698C79.0816 2.47858 79.2047 2.28942 79.3628 2.13191C79.6818 1.83735 80.1036 1.67964 80.5376 1.69263C80.8132 1.68177 81.0869 1.74353 81.3312 1.87174C81.5755 1.99995 81.7818 2.19009 81.9295 2.42312L81.5642 2.71927C81.4507 2.55116 81.2978 2.41337 81.1189 2.31787C80.94 2.22238 80.7404 2.1721 80.5376 2.1714C80.3912 2.16566 80.2453 2.18983 80.1087 2.24245C79.972 2.29507 79.8476 2.37503 79.7429 2.47742C79.638 2.58949 79.5569 2.72158 79.5043 2.86576C79.4517 3.00994 79.4288 3.16326 79.4368 3.31652C79.4324 3.47692 79.4609 3.63652 79.5208 3.78541C79.5643 3.90387 79.6278 4.01404 79.7083 4.11118C79.7949 4.2015 79.8948 4.27806 80.0045 4.33823C80.1021 4.39477 80.2045 4.44267 80.3105 4.48137C80.3895 4.51098 80.4981 4.54061 80.6313 4.58009L80.9719 4.68374C81.0711 4.71774 81.1683 4.75728 81.2631 4.8022C81.3605 4.84448 81.4479 4.90669 81.5198 4.98482C81.5857 5.06053 81.6375 5.14747 81.6728 5.24149C81.7198 5.35745 81.7433 5.48161 81.7419 5.60674C81.7433 5.83297 81.6818 6.05514 81.5642 6.24839H81.0706C81.159 6.07029 81.2062 5.87464 81.2088 5.67585Z" fill="white"/>
<path d="M83.7864 1.61875H83.3965L83.4853 0.202148H84.048L83.7864 1.61875ZM85.124 5.03928H84.6008V0.597024H85.124V5.03928Z" fill="white"/>
<path d="M89.4769 3.37138C89.4808 3.59874 89.4392 3.82459 89.3545 4.0356C89.2697 4.24661 89.1436 4.43852 88.9835 4.6C88.8234 4.76147 88.6326 4.88925 88.4223 4.97579C88.212 5.06233 87.9866 5.10588 87.7592 5.10387C87.5339 5.10585 87.3106 5.06286 87.1021 4.97743C86.8937 4.892 86.7045 4.76584 86.5454 4.60634C86.3864 4.44683 86.2607 4.25719 86.1759 4.04853C86.0911 3.83986 86.0487 3.61637 86.0514 3.39113C86.0453 3.16782 86.0861 2.94573 86.1711 2.73915C86.2561 2.53257 86.3835 2.34607 86.545 2.19171C86.702 2.03248 86.8897 1.90667 87.0967 1.82184C87.3037 1.73702 87.5256 1.69493 87.7493 1.69813H87.7888L86.2044 0.133478V-0.0195312H89.2942V0.434557H87.2458L88.8303 2.0239C89.0253 2.19161 89.1835 2.39795 89.2948 2.62988C89.4061 2.86181 89.4681 3.11429 89.4769 3.37138ZM88.6081 4.27464C88.7204 4.15811 88.8083 4.02043 88.8667 3.86959C88.9252 3.71875 88.9531 3.55777 88.9487 3.39606C88.9526 3.23588 88.9245 3.07655 88.866 2.92739C88.8075 2.77822 88.7198 2.64223 88.6081 2.52736C88.3821 2.30579 88.0782 2.18168 87.7617 2.18168C87.4451 2.18168 87.1412 2.30579 86.9151 2.52736C86.6994 2.76818 86.5801 3.08014 86.5801 3.40347C86.5801 3.7268 86.6994 4.03876 86.9151 4.27958C87.0249 4.39301 87.157 4.48233 87.3032 4.54182C87.4494 4.60131 87.6064 4.62967 87.7641 4.62509C87.9233 4.63297 88.0823 4.60664 88.2304 4.54789C88.3786 4.48915 88.5124 4.39934 88.623 4.28452L88.6081 4.27464Z" fill="white"/>
<path d="M93.1978 2.18204C93.3574 2.34188 93.4834 2.53215 93.5682 2.74157C93.653 2.95098 93.6948 3.17529 93.6913 3.40119C93.7033 3.8519 93.5386 4.28943 93.2323 4.62034C93.0894 4.78029 92.9134 4.90728 92.7165 4.9925C92.5196 5.07773 92.3066 5.11915 92.0921 5.11393C91.8576 5.11463 91.6255 5.06585 91.411 4.97078C91.2148 4.87766 91.0451 4.73681 90.9174 4.56111V6.24916H90.4238V3.42094C90.4022 2.96249 90.5617 2.51393 90.8681 2.17217C91.0177 2.00994 91.2005 1.88187 91.404 1.7967C91.6076 1.71152 91.8272 1.67123 92.0477 1.67859C92.2634 1.68087 92.4765 1.72663 92.6741 1.81313C92.8717 1.89963 93.0498 2.02511 93.1978 2.18204ZM92.8078 4.28963C93.0182 4.04237 93.1337 3.72831 93.1337 3.40366C93.1337 3.079 93.0182 2.76494 92.8078 2.51767C92.7023 2.40425 92.5737 2.31475 92.4306 2.25515C92.2876 2.19556 92.1335 2.16727 91.9786 2.17217C91.8325 2.16812 91.6871 2.19308 91.5507 2.2456C91.4143 2.29813 91.2896 2.37719 91.184 2.47819C91.0712 2.60059 90.9846 2.7447 90.9295 2.9017C90.8743 3.0587 90.8517 3.2253 90.8631 3.39132C90.85 3.56054 90.8727 3.73062 90.9297 3.8905C90.9867 4.05037 91.0767 4.19646 91.1938 4.31926C91.2976 4.42212 91.421 4.50308 91.5566 4.55735C91.6923 4.61161 91.8375 4.63807 91.9836 4.63515C92.1377 4.63999 92.291 4.61164 92.4333 4.55203C92.5755 4.49242 92.7032 4.40293 92.8078 4.28963Z" fill="white"/>
<path d="M97.2943 3.4744C97.3289 3.91986 97.1911 4.36161 96.9093 4.70835C96.7824 4.8414 96.6289 4.94622 96.4588 5.01595C96.2887 5.08569 96.1059 5.11879 95.9221 5.1131C95.7408 5.1197 95.5601 5.0899 95.3905 5.02547C95.221 4.96104 95.0661 4.86328 94.9349 4.73797C94.8043 4.59917 94.7033 4.4353 94.638 4.25627C94.5727 4.07724 94.5444 3.8868 94.5549 3.69651V1.7666H95.0485V3.74093C95.0416 3.86333 95.0596 3.98584 95.1011 4.10117C95.1427 4.21649 95.207 4.32227 95.2903 4.4122C95.3706 4.49542 95.4674 4.56084 95.5745 4.60421C95.6817 4.64758 95.7967 4.66792 95.9122 4.66393C96.0285 4.66708 96.144 4.64384 96.25 4.59597C96.356 4.5481 96.4498 4.47683 96.5243 4.38753C96.7036 4.13324 96.7874 3.8239 96.7612 3.51389C96.7576 3.22061 96.7279 2.92823 96.6724 2.64024C96.6188 2.35017 96.5429 2.0647 96.4453 1.78635H96.9389C97.1587 2.32284 97.2791 2.89482 97.2943 3.4744Z" fill="white"/>
<path d="M101.88 2.23146H100.858C101.042 2.37444 101.19 2.55896 101.29 2.76996C101.389 2.98097 101.438 3.21249 101.431 3.44567C101.434 3.66564 101.391 3.88387 101.307 4.08681C101.222 4.28975 101.096 4.47307 100.937 4.62535C100.78 4.78699 100.591 4.91429 100.382 4.99924C100.173 5.08419 99.9484 5.12494 99.7229 5.11893C99.4979 5.12639 99.274 5.08627 99.0656 5.00121C98.8572 4.91616 98.6691 4.78808 98.5136 4.62535C98.3544 4.46826 98.2285 4.28059 98.1437 4.07362C98.0589 3.86665 98.0168 3.64466 98.02 3.421C98.0145 3.19996 98.0556 2.98023 98.1406 2.77612C98.2257 2.57202 98.3528 2.38813 98.5136 2.2364C98.6768 2.08191 98.869 1.96134 99.0791 1.8817C99.2893 1.80206 99.5131 1.76492 99.7377 1.77243H101.855L101.88 2.23146ZM100.572 4.27983C100.791 4.04237 100.91 3.72922 100.903 3.40619C100.908 3.25041 100.881 3.09519 100.824 2.95006C100.767 2.80493 100.682 2.67293 100.572 2.56216C100.346 2.35263 100.049 2.23624 99.7402 2.23624C99.4318 2.23624 99.1347 2.35263 98.9085 2.56216C98.7989 2.67484 98.7136 2.8087 98.6575 2.95552C98.6015 3.10235 98.5761 3.25905 98.5827 3.41606C98.5752 3.73681 98.6919 4.04805 98.9085 4.28477C99.013 4.39986 99.1413 4.49082 99.2845 4.55134C99.4277 4.61186 99.5823 4.64048 99.7377 4.63521C99.8941 4.63926 100.05 4.60962 100.193 4.5483C100.337 4.48698 100.466 4.39542 100.572 4.27983Z" fill="white"/>
<path d="M105.064 2.04852C105.289 2.30598 105.406 2.64009 105.39 2.98138V6.2489H104.897V3.05049C104.906 2.81863 104.828 2.59161 104.679 2.41376C104.604 2.33283 104.512 2.26925 104.41 2.22748C104.308 2.18571 104.197 2.16676 104.087 2.17191C103.971 2.1669 103.855 2.18626 103.747 2.22878C103.639 2.27129 103.542 2.336 103.46 2.41871C103.379 2.50232 103.316 2.60137 103.275 2.70993C103.233 2.81849 103.214 2.93433 103.218 3.05049V5.02483H102.725V2.64575C102.725 2.33479 102.601 2.18178 102.36 2.18178H102.162V1.74742C102.281 1.71438 102.404 1.69777 102.527 1.69806C102.668 1.68678 102.808 1.72434 102.924 1.80438C103.04 1.88441 103.125 2.00202 103.164 2.13736C103.29 1.98373 103.45 1.86175 103.632 1.78118C103.814 1.70061 104.012 1.6637 104.21 1.67339C104.371 1.67401 104.53 1.70764 104.676 1.77217C104.823 1.83671 104.955 1.93077 105.064 2.04852Z" fill="white"/>
<path d="M108.564 5.67585C108.573 5.60138 108.563 5.526 108.535 5.45631C108.507 5.38661 108.463 5.32472 108.406 5.27603C108.237 5.17365 108.052 5.10026 107.858 5.05887C107.701 5.01445 107.562 4.97496 107.454 4.93547C107.311 4.88049 107.172 4.81447 107.039 4.73803C106.888 4.65686 106.752 4.55186 106.634 4.42708C106.519 4.29484 106.429 4.14262 106.368 3.97792C106.288 3.7754 106.249 3.55889 106.254 3.34119C106.242 3.11832 106.277 2.89538 106.357 2.68698C106.437 2.47858 106.56 2.28942 106.718 2.13191C107.037 1.83735 107.459 1.67964 107.893 1.69263C108.169 1.68177 108.442 1.74353 108.687 1.87174C108.931 1.99995 109.137 2.19009 109.285 2.42312L108.92 2.71927C108.806 2.55116 108.653 2.41337 108.474 2.31787C108.295 2.22238 108.096 2.1721 107.893 2.1714C107.747 2.16566 107.601 2.18983 107.464 2.24245C107.327 2.29507 107.203 2.37503 107.098 2.47742C106.994 2.58949 106.912 2.72158 106.86 2.86576C106.807 3.00994 106.784 3.16326 106.792 3.31652C106.788 3.47692 106.816 3.63652 106.876 3.78541C106.92 3.90387 106.983 4.01404 107.064 4.11118C107.15 4.2015 107.25 4.27806 107.36 4.33823C107.458 4.39385 107.56 4.44171 107.666 4.48137C107.745 4.51098 107.854 4.54061 107.987 4.58009L108.327 4.68374C108.427 4.71774 108.524 4.75728 108.619 4.8022C108.716 4.84448 108.803 4.90669 108.875 4.98482C108.941 5.06053 108.993 5.14747 109.028 5.24149C109.075 5.35745 109.099 5.48161 109.097 5.60674C109.099 5.83297 109.037 6.05514 108.92 6.24839H108.426C108.514 6.07029 108.562 5.87464 108.564 5.67585Z" fill="white"/>
<path d="M113.411 4.5806H114.359V5.03963H111.891V4.5806H112.912V1.93499H111.935V1.44141H113.416L113.411 4.5806Z" fill="white"/>
<path d="M117.571 1.81189C117.715 1.94905 117.828 2.11479 117.904 2.29842C117.98 2.48205 118.016 2.6795 118.011 2.87803C118.009 3.04688 117.978 3.21411 117.917 3.37161C117.869 3.51435 117.806 3.65165 117.729 3.78128C117.665 3.88493 117.556 4.04782 117.399 4.27487L116.318 5.83953H115.706L116.811 4.24525C116.689 4.28601 116.56 4.30604 116.431 4.30449C116.241 4.30711 116.053 4.27129 115.877 4.19919C115.702 4.12709 115.543 4.02019 115.409 3.88495C115.272 3.75288 115.164 3.59401 115.091 3.41823C115.018 3.24246 114.982 3.05354 114.985 2.86322C114.98 2.66469 115.016 2.46725 115.092 2.28362C115.167 2.09999 115.281 1.93424 115.424 1.79708C115.566 1.65625 115.735 1.5456 115.921 1.4718C116.106 1.398 116.305 1.36258 116.505 1.36767C116.704 1.36651 116.9 1.40523 117.083 1.48154C117.266 1.55786 117.432 1.67019 117.571 1.81189ZM117.206 3.59373C117.388 3.39599 117.489 3.13699 117.489 2.86817C117.489 2.59934 117.388 2.34034 117.206 2.1426C117.016 1.95689 116.761 1.85291 116.495 1.85291C116.23 1.85291 115.974 1.95689 115.784 2.1426C115.691 2.23717 115.617 2.34977 115.568 2.47362C115.518 2.59747 115.495 2.73 115.498 2.86322C115.494 2.99727 115.517 3.13073 115.567 3.25548C115.616 3.38023 115.69 3.49364 115.784 3.58879C115.877 3.68177 115.987 3.7554 116.108 3.8054C116.229 3.8554 116.359 3.88076 116.49 3.88C116.623 3.88478 116.755 3.86179 116.878 3.81249C117.002 3.76319 117.113 3.68868 117.206 3.59373Z" fill="white"/>
<path d="M120.425 4.5806H121.372V5.03963H118.904V4.5806H119.926V1.93499H118.944V1.44141H120.425V4.5806Z" fill="white"/>
<path d="M124.585 1.81114C124.727 1.94898 124.839 2.11507 124.913 2.2987C124.987 2.48233 125.022 2.67943 125.015 2.87728C125.013 3.04567 124.983 3.21259 124.926 3.37087C124.878 3.5136 124.815 3.6509 124.738 3.78053C124.674 3.88419 124.561 4.04707 124.403 4.27412L123.327 5.83878H122.715L123.825 4.2445C123.701 4.28492 123.571 4.30494 123.44 4.30375C123.251 4.30656 123.063 4.2708 122.889 4.19867C122.714 4.12653 122.555 4.01953 122.423 3.8842C122.285 3.75287 122.176 3.59414 122.103 3.41819C122.03 3.24225 121.994 3.05296 121.999 2.86248C121.992 2.66378 122.028 2.46596 122.104 2.28214C122.179 2.09833 122.293 1.93273 122.438 1.79633C122.727 1.52025 123.112 1.36621 123.512 1.36621C123.912 1.36621 124.296 1.52025 124.585 1.79633V1.81114ZM124.22 3.59298C124.411 3.40364 124.519 3.14628 124.521 2.87728C124.525 2.74324 124.502 2.60977 124.453 2.48503C124.403 2.36028 124.329 2.24687 124.235 2.15171C124.046 1.96632 123.791 1.86248 123.526 1.86248C123.262 1.86248 123.007 1.96632 122.818 2.15171C122.723 2.24588 122.649 2.3583 122.599 2.48217C122.549 2.60604 122.524 2.73877 122.527 2.87234C122.524 3.00674 122.548 3.14042 122.598 3.26518C122.648 3.38995 122.723 3.50317 122.818 3.59791C122.91 3.69269 123.02 3.76805 123.142 3.8195C123.264 3.87096 123.394 3.89747 123.526 3.89747C123.659 3.89747 123.789 3.87096 123.911 3.8195C124.033 3.76805 124.143 3.69269 124.235 3.59791L124.22 3.59298Z" fill="white"/>
</g>
<defs>
<clipPath id="clip0_363_3588">
<rect width="159.487" height="60" fill="white"/>
</clipPath>
</defs>
</svg>
