<svg width="16" height="16" viewBox="0 0 16 16" fill="none" xmlns="http://www.w3.org/2000/svg">
<path fill-rule="evenodd" clip-rule="evenodd" d="M6.125 1.25C4.7787 1.25 3.56047 1.79524 2.67785 2.67785C1.79524 3.56047 1.25 4.7787 1.25 6.125C1.25 7.4713 1.79524 8.68953 2.67785 9.57215C3.56047 10.4548 4.7787 11 6.125 11C7.47117 11 8.68931 10.4549 9.57186 9.57242L9.57242 9.57186C10.4549 8.68931 11 7.47117 11 6.125C11 4.7787 10.4548 3.56047 9.57215 2.67785C8.68953 1.79524 7.4713 1.25 6.125 1.25ZM10.3591 9.82822C11.2249 8.83908 11.75 7.54305 11.75 6.125C11.75 4.5718 11.12 3.16504 10.1025 2.14752C9.08496 1.13001 7.6782 0.5 6.125 0.5C4.5718 0.5 3.16504 1.13001 2.14752 2.14752C1.13001 3.16504 0.5 4.5718 0.5 6.125C0.5 7.6782 1.13001 9.08496 2.14752 10.1025C3.16504 11.12 4.5718 11.75 6.125 11.75C7.54305 11.75 8.83908 11.2249 9.82822 10.3591L14.9375 15.4678L15.4678 14.9375L10.3591 9.82822Z" fill="#082F6E"/>
</svg>
