<svg width="14" height="12" viewBox="0 0 14 12" fill="none" xmlns="http://www.w3.org/2000/svg">
<path d="M3.26693 0.866211C3.00933 0.866211 2.80026 1.07528 2.80026 1.33288V2.26621H11.2003V1.33288C11.2003 1.07528 10.9912 0.866211 10.7336 0.866211H3.26693ZM1.86693 3.19954C1.35126 3.19954 0.933594 3.61721 0.933594 4.13288V8.33288C0.933594 8.84854 1.35126 9.26621 1.86693 9.26621H2.80026V11.5995H11.2003V9.26621H12.1336C12.6493 9.26621 13.0669 8.84854 13.0669 8.33288V4.13288C13.0669 3.61721 12.6493 3.19954 12.1336 3.19954H1.86693ZM3.73359 5.99954H10.2669V10.6662H3.73359V5.99954Z" fill="#002F6C"/>
</svg>
