<svg width="67" height="55" viewBox="0 0 67 55" fill="none" xmlns="http://www.w3.org/2000/svg">
<path opacity="0.3" d="M62.0537 1.818L61.8072 1.41245L61.3894 1.63736C44.2663 10.8537 34.6214 24.3676 35.0958 36.7687C35.2536 41.9841 36.6725 45.9169 38.3651 48.6746C40.0473 51.4152 42.0189 53.0228 43.3114 53.5416L43.4011 53.5776H43.4977H46.7516H46.8885L47.0063 53.5079L62.5009 44.3341L62.7461 44.1889V43.9039V40.7941V40.4882L62.4737 40.3489L54.3568 36.1994C53.1332 34.6538 52.8296 32.944 52.8296 29.599C52.8296 25.9262 54.4016 22.0586 56.8318 18.4294C59.2581 14.8058 62.513 11.461 65.8108 8.84432L66.1564 8.57007L65.9273 8.193L62.0537 1.818ZM27.9702 1.8257L27.7258 1.40678L27.2996 1.63827C10.3295 10.8561 0.690828 24.3688 1.00755 36.7642L1.00762 36.7665C1.16514 41.983 2.58416 45.9165 4.27701 48.6746C5.95919 51.4152 7.93086 53.0228 9.22337 53.5416L9.31302 53.5776H9.40962H12.6635H12.8004L12.9182 53.5079L28.4128 44.3341L28.6581 44.1889V43.9039V40.7941V40.4882L28.3857 40.3489L20.2822 36.2063C19.1971 34.6571 18.8965 32.9322 18.8965 29.599C18.8965 25.923 20.4323 22.0537 22.8048 18.4248C25.1739 14.8012 28.3519 11.4568 31.5722 8.84072L31.9047 8.57067L31.6889 8.2007L27.9702 1.8257Z" stroke="#002F6C"/>
</svg>
