<svg width="12" height="12" viewBox="0 0 12 12" fill="none" xmlns="http://www.w3.org/2000/svg">
<path d="M5.06706 0.400391C2.49526 0.400391 0.400391 2.49526 0.400391 5.06706C0.400391 7.63886 2.49526 9.73372 5.06706 9.73372C6.18543 9.73372 7.2125 9.33658 8.01745 8.67734L10.8038 11.4637C10.8468 11.5085 10.8983 11.5442 10.9553 11.5689C11.0123 11.5935 11.0736 11.6065 11.1357 11.6071C11.1978 11.6078 11.2594 11.596 11.3168 11.5725C11.3743 11.5491 11.4266 11.5144 11.4705 11.4705C11.5144 11.4266 11.5491 11.3743 11.5725 11.3168C11.596 11.2594 11.6078 11.1978 11.6071 11.1357C11.6065 11.0736 11.5935 11.0123 11.5689 10.9553C11.5442 10.8983 11.5085 10.8468 11.4637 10.8038L8.67734 8.01745C9.33658 7.2125 9.73372 6.18543 9.73372 5.06706C9.73372 2.49526 7.63886 0.400391 5.06706 0.400391ZM5.06706 1.33372C7.13445 1.33372 8.80039 2.99967 8.80039 5.06706C8.80039 7.13445 7.13445 8.80039 5.06706 8.80039C2.99967 8.80039 1.33372 7.13445 1.33372 5.06706C1.33372 2.99967 2.99967 1.33372 5.06706 1.33372Z" fill="white"/>
</svg>
