<svg width="28" height="22" viewBox="0 0 28 22" fill="none" xmlns="http://www.w3.org/2000/svg">
<path d="M20.0143 0.149414C22.4076 0.149414 24.3477 2.13457 24.3477 4.58338C24.3477 5.87591 23.8072 7.03926 22.9448 7.84971C25.4524 8.53092 27.315 10.8333 27.3966 13.5938L27.3994 13.7827V16.5113H26.066V13.7827L26.0633 13.6186C25.9806 11.1119 24.0096 9.09515 21.5598 9.01046L21.3994 9.0077H20.3327C20.2274 9.01339 20.1213 9.01736 20.0143 9.01736C19.5021 9.01736 19.0107 8.92643 18.5546 8.75949C18.3354 9.7078 17.8385 10.5475 17.1567 11.1833C19.5456 11.7237 21.3327 13.904 21.3327 16.5113V21.2864H6.66602V16.5113C6.66602 13.8952 8.46507 11.7091 10.8663 11.1775C10.1874 10.5428 9.69281 9.70542 9.47347 8.75906C9.01795 8.92643 8.52652 9.01736 8.01432 9.01736C7.91883 9.01736 7.82406 9.01419 7.7301 9.00797L6.66602 9.0077C4.14238 9.0077 2.08662 11.0574 2.00206 13.6186L1.99935 13.7827V16.5113H0.666016V13.7827C0.666016 10.9494 2.54184 8.56428 5.09209 7.8568C4.2248 7.0464 3.68099 5.87987 3.68099 4.58338C3.68099 2.13457 5.62109 0.149414 8.01432 0.149414C9.96153 0.149414 11.6088 1.46357 12.1551 3.27239C12.7245 3.0186 13.3534 2.87801 14.0143 2.87801C14.6755 2.87801 15.3046 3.01871 15.8745 3.27245C16.4195 1.4639 18.0669 0.149414 20.0143 0.149414ZM15.9994 12.4184L14.3072 12.4189C14.2103 12.425 14.1127 12.4281 14.0143 12.4281C13.916 12.4281 13.8183 12.425 13.7215 12.4189L11.9994 12.4184C9.84042 12.4184 8.08097 14.1685 8.00211 16.3579L7.99935 16.5113V19.9221H19.9994V16.5113C19.9994 14.3023 18.289 12.502 16.1493 12.4213L15.9994 12.4184ZM14.0143 4.24231C12.1734 4.24231 10.681 5.76935 10.681 7.65306C10.681 9.45175 12.0417 10.9252 13.7673 11.0546H14.2613C15.9869 10.9252 17.3477 9.45175 17.3477 7.65306C17.3477 5.76935 15.8553 4.24231 14.0143 4.24231ZM8.01432 1.51371C6.35747 1.51371 5.01432 2.88805 5.01432 4.58338C5.01432 6.27872 6.35747 7.65306 8.01432 7.65306C8.49754 7.65306 8.95407 7.53616 9.35838 7.3285C9.44433 6.01517 10.0496 4.84701 10.966 4.03742C10.7152 2.60246 9.48902 1.51371 8.01432 1.51371ZM20.0143 1.51371C18.5396 1.51371 17.3135 2.60246 17.0617 4.03725C17.979 4.84702 18.5843 6.01517 18.6704 7.32884C19.0746 7.53616 19.5311 7.65306 20.0143 7.65306C21.6712 7.65306 23.0143 6.27872 23.0143 4.58338C23.0143 2.88805 21.6712 1.51371 20.0143 1.51371Z" fill="#3BBBA3"/>
</svg>
