<svg width="16" height="16" viewBox="0 0 16 16" fill="none" xmlns="http://www.w3.org/2000/svg">
<path d="M7.99667 0C3.58733 0 0 3.588 0 7.99733C0 12.4107 3.58733 16 7.99667 16C12.41 16 16 12.41 16 7.99733C16 3.588 12.41 0 7.99667 0ZM3.93867 10.936C4.85428 10.6555 5.80639 10.5122 6.764 10.5107C8.37333 10.5107 9.962 10.9187 11.3587 11.6907C11.442 11.736 11.5173 11.8853 11.552 12.072C11.5853 12.2587 11.572 12.45 11.5173 12.5493C11.4916 12.5966 11.4567 12.6382 11.4147 12.6719C11.3727 12.7056 11.3245 12.7306 11.2728 12.7455C11.221 12.7603 11.1669 12.7648 11.1134 12.7586C11.06 12.7524 11.0083 12.7357 10.9613 12.7093C9.93547 12.1466 8.80702 11.7956 7.64294 11.6771C6.47885 11.5587 5.30284 11.6753 4.18467 12.02C4.13333 12.0366 4.07921 12.0428 4.02545 12.0383C3.97169 12.0338 3.91937 12.0186 3.87154 11.9937C3.8237 11.9687 3.7813 11.9345 3.74682 11.893C3.71233 11.8515 3.68645 11.8036 3.67067 11.752C3.59933 11.5187 3.74667 10.9987 3.93867 10.936ZM3.59 7.98933C4.62437 7.70832 5.69148 7.56597 6.76333 7.566C8.69267 7.566 10.608 8.03267 12.3033 8.91667C12.4227 8.97667 12.51 9.07933 12.55 9.20467C12.5702 9.26796 12.5776 9.33466 12.5716 9.40084C12.5657 9.46702 12.5465 9.53133 12.5153 9.59C12.364 9.886 12.1867 10.0853 12.0753 10.0853C11.9941 10.085 11.9141 10.0653 11.842 10.028C10.2748 9.20979 8.53192 8.78557 6.764 8.792C5.78062 8.79003 4.80151 8.92122 3.85333 9.182C3.79008 9.19929 3.72404 9.20395 3.65898 9.19572C3.59393 9.18749 3.53113 9.16653 3.47418 9.13403C3.41722 9.10153 3.36723 9.05813 3.32705 9.0063C3.28687 8.95448 3.25729 8.89525 3.24 8.832C3.16533 8.55067 3.33667 8.05867 3.59 7.98933ZM3.5 6.06533C3.42496 6.08459 3.34685 6.0888 3.27018 6.07771C3.19351 6.06662 3.11979 6.04045 3.05329 6.00072C2.98678 5.96099 2.9288 5.90849 2.8827 5.84623C2.83659 5.78397 2.80327 5.7132 2.78467 5.638C2.70267 5.306 2.91 4.92067 3.21133 4.84467C4.37367 4.55838 5.56626 4.41311 6.76333 4.412C9.06333 4.412 11.2673 4.92933 13.3127 5.95C13.4532 6.01988 13.5602 6.1427 13.6102 6.29146C13.6602 6.44023 13.6491 6.60276 13.5793 6.74333C13.484 6.93533 13.2773 7.142 13.0493 7.142C12.9599 7.14167 12.8717 7.12188 12.7907 7.084C10.9204 6.14576 8.85575 5.66026 6.76333 5.66667C5.67333 5.66667 4.57533 5.80067 3.5 6.06533Z" fill="white"/>
</svg>
