<svg width="14" height="13" viewBox="0 0 14 13" fill="none" xmlns="http://www.w3.org/2000/svg">
<path d="M12.7047 2.36152L11.0406 0.699023C10.8375 0.495898 10.5656 0.381836 10.2781 0.381836C9.99062 0.381836 9.71875 0.494336 9.51562 0.699023L7.72344 2.48809C7.52031 2.69121 7.40625 2.96465 7.40625 3.25215C7.40625 3.54121 7.51875 3.81152 7.72344 4.01621L9.12344 5.41777C8.8045 6.16088 8.34626 6.83605 7.77344 7.40684C7.2 7.9834 6.52969 8.43809 5.78594 8.75996L4.38594 7.3584C4.18281 7.15527 3.91094 7.04121 3.62344 7.04121C3.48163 7.04069 3.34114 7.06847 3.21021 7.12294C3.07928 7.1774 2.96054 7.25745 2.86094 7.3584L1.06719 9.14746C0.864063 9.35058 0.75 9.62402 0.75 9.91152C0.75 10.2006 0.8625 10.4709 1.06719 10.6756L2.72969 12.3381C3.07656 12.685 3.55469 12.8834 4.04531 12.8834C4.14687 12.8834 4.24531 12.8756 4.34531 12.8584C6.41406 12.5178 8.46719 11.4162 10.125 9.75996C11.7812 8.10059 12.8812 6.04746 13.225 3.97715C13.3234 3.38965 13.1266 2.78496 12.7047 2.36152ZM12.1172 3.79121C11.8125 5.6334 10.8219 7.4709 9.32969 8.96309C7.8375 10.4553 6.00156 11.4459 4.15937 11.7506C3.92812 11.7896 3.69062 11.7115 3.52187 11.5443L1.88906 9.91152L3.62031 8.17871L5.49219 10.0537L5.50625 10.0678L5.84375 9.94277C6.86707 9.56653 7.79635 8.97227 8.56717 8.20118C9.33799 7.43009 9.93193 6.5006 10.3078 5.47715L10.4328 5.13965L8.54531 3.25371L10.2766 1.5209L11.9094 3.15371C12.0781 3.32246 12.1562 3.55996 12.1172 3.79121Z" fill="#002F6C"/>
</svg>
