<svg width="28" height="28" viewBox="0 0 28 28" fill="none" xmlns="http://www.w3.org/2000/svg">
<path fill-rule="evenodd" clip-rule="evenodd" d="M27.3327 0.411133V20.1935H23.7193L26.4337 25.0027L23.5346 25.3651L21.8149 27.7313L19.1243 22.9628L16.4337 27.7313L14.7141 25.3651L11.8149 25.0027L14.5287 20.1935H0.666016V0.411133H27.3327ZM15.7726 20.7162L13.9773 23.8982L15.443 24.0817L16.2931 25.2513L18.0831 22.0788C17.1928 21.8444 16.3985 21.3655 15.7726 20.7162ZM22.6226 20.9765C21.9529 21.5758 21.1254 21.9952 20.2124 22.161L21.9556 25.2513L22.8057 24.0817L24.2714 23.8982L22.6226 20.9765ZM19.3327 13.372C17.3076 13.372 15.666 15.0517 15.666 17.1238C15.666 19.1959 17.3076 20.8756 19.3327 20.8756C21.3577 20.8756 22.9993 19.1959 22.9993 17.1238C22.9993 15.0517 21.3577 13.372 19.3327 13.372ZM25.9993 1.77543H1.99935V18.8292L14.6175 18.8302C14.4331 18.2965 14.3327 17.7221 14.3327 17.1238C14.3327 14.2982 16.5713 12.0077 19.3327 12.0077C22.0941 12.0077 24.3327 14.2982 24.3327 17.1238C24.3327 17.722 24.2323 18.2962 24.0479 18.8298L25.9993 18.8292V1.77543ZM12.876 12.0077V13.372H5.33268V12.0077H12.876ZM22.666 8.59692V9.96122H5.33268V8.59692H22.666ZM22.666 5.18618V6.55048H5.33268V5.18618H22.666Z" fill="#CFA867"/>
</svg>
