<svg width="16" height="16" viewBox="0 0 16 16" fill="none" xmlns="http://www.w3.org/2000/svg">
<path d="M16 3.54204C15.4116 3.80262 14.7795 3.97869 14.115 4.05828C14.8007 3.64824 15.3136 3.00289 15.5582 2.24264C14.914 2.62506 14.209 2.89424 13.4738 3.03848C12.9794 2.51087 12.3245 2.16117 11.6109 2.04366C10.8973 1.92615 10.1648 2.04741 9.52717 2.3886C8.88955 2.7298 8.38247 3.27185 8.08467 3.93059C7.78686 4.58934 7.71499 5.32792 7.88021 6.03167C6.57496 5.96617 5.29807 5.6271 4.13242 5.03646C2.96677 4.44581 1.93841 3.6168 1.11407 2.60323C0.832203 3.08918 0.670131 3.65261 0.670131 4.25266C0.669817 4.79284 0.802912 5.32474 1.05761 5.80118C1.3123 6.27762 1.68073 6.68386 2.13019 6.98386C1.60893 6.96728 1.09918 6.82651 0.643354 6.57327V6.61552C0.643302 7.37315 0.905511 8.10746 1.38549 8.69385C1.86547 9.28025 2.53365 9.68262 3.27667 9.83268C2.79312 9.96348 2.28615 9.98274 1.79406 9.88902C2.0037 10.5409 2.41205 11.111 2.96194 11.5194C3.51184 11.9278 4.17575 12.1541 4.86074 12.1667C3.69794 13.079 2.26188 13.5739 0.783581 13.5717C0.521717 13.5718 0.260073 13.5565 0 13.5259C1.50056 14.4902 3.24731 15.002 5.03127 15C11.0702 15 14.3715 10.001 14.3715 5.66545C14.3715 5.52459 14.368 5.38232 14.3617 5.24147C15.0038 4.77733 15.5581 4.20258 15.9986 3.54415L16 3.54204Z" fill="white"/>
</svg>
