<svg width="28" height="24" viewBox="0 0 28 24" fill="none" xmlns="http://www.w3.org/2000/svg">
<path d="M17.3327 0.0927734C18.8054 0.0927734 19.9993 1.31441 19.9993 2.82137V4.18499L27.3327 4.18567V23.2858H0.666016V4.18567L7.99935 4.18499V2.82137C7.99935 1.31441 9.19326 0.0927734 10.666 0.0927734L17.3327 0.0927734ZM1.99935 10.8284V21.9215H25.9993V10.8339L16.2213 14.57L16.2216 17.8287H11.7771L11.7767 14.525L1.99935 10.8284ZM14.888 12.3715H13.11V16.4644H14.888V12.3715ZM7.99935 5.54928L1.99935 5.54997V9.3741L11.7767 13.07L11.7771 11.0072H16.2216L16.2213 13.1136L25.9993 9.37751V5.54997L19.9993 5.54928V5.54997H7.99935V5.54928ZM17.3327 1.45707H10.666C9.96311 1.45707 9.38724 2.01362 9.33634 2.71955L9.33268 2.82137V4.18499H18.666V2.82137C18.666 2.10214 18.1221 1.5129 17.4322 1.46081L17.3327 1.45707Z" fill="#AF8373"/>
</svg>
