<svg width="16" height="16" viewBox="0 0 16 16" fill="none" xmlns="http://www.w3.org/2000/svg">
<path d="M15.665 4.569C15.5744 4.26621 15.3979 3.99207 15.1544 3.77574C14.9039 3.55276 14.597 3.39325 14.2625 3.31228C13.0107 3.0031 7.99534 3.0031 7.99534 3.0031C5.9045 2.98081 3.81418 3.07885 1.73618 3.29667C1.40168 3.38362 1.09531 3.54669 0.844298 3.77137C0.597664 3.99373 0.419022 4.26794 0.325701 4.56838C0.101526 5.70001 -0.00739287 6.84905 0.0004114 8C-0.00758752 9.14991 0.101065 10.2986 0.325701 11.4316C0.417022 11.7308 0.594998 12.0038 0.842298 12.2243C1.0896 12.4447 1.39756 12.604 1.73618 12.6883C3.00467 12.9969 7.99534 12.9969 7.99534 12.9969C10.0888 13.0192 12.1818 12.9212 14.2625 12.7033C14.597 12.6224 14.9039 12.4628 15.1544 12.2399C15.401 12.0194 15.5763 11.7452 15.6643 11.4466C15.8943 10.3154 16.0062 9.16589 15.9983 8.01436C16.0156 6.85796 15.9039 5.70302 15.665 4.56838V4.569ZM6.40088 10.1387V5.86195L10.5737 8.00062L6.40088 10.1387Z" fill="white"/>
</svg>
