<svg width="506" height="525" viewBox="0 0 506 525" fill="none" xmlns="http://www.w3.org/2000/svg">
<path fill-rule="evenodd" clip-rule="evenodd" d="M505.707 498.417V525H0L0 498.417H505.707ZM0.0540153 166.135L0.0540153 87.4838L252.851 0L506 87.4795V166.135H442.493V405.378C442.493 420.059 453.814 431.961 467.779 431.961H505.707V458.543H467.779C439.849 458.543 417.208 434.741 417.208 405.378V139.552L480.712 139.539V106.722L252.853 27.9847L25.3359 106.722V139.539L88.4987 139.552V405.378C88.4987 434.741 65.8574 458.543 37.928 458.543H0L0 431.961H37.928C51.8927 431.961 63.2134 420.059 63.2134 405.378V166.135H0.0540153ZM233.889 139.552V402.055C233.889 433.253 209.833 458.543 180.158 458.543C150.483 458.543 126.427 433.253 126.427 402.055V139.552H233.889ZM379.28 139.552V405.378C379.28 434.741 356.639 458.543 328.709 458.543H322.388C294.459 458.543 271.817 434.741 271.817 405.378V139.552H379.28ZM353.995 166.135H297.103V402.055C297.103 418.572 309.838 431.961 325.549 431.961C341.259 431.961 353.995 418.572 353.995 402.055V166.135ZM208.604 166.135H151.712V402.055C151.712 418.572 164.448 431.961 180.158 431.961C195.868 431.961 208.604 418.572 208.604 402.055V166.135Z" fill="#FF8275" fill-opacity="0.7"/>
</svg>
