<svg width="616" height="476" viewBox="0 0 616 476" fill="none" xmlns="http://www.w3.org/2000/svg">
<path d="M445.831 0C500.977 0 545.682 44.7053 545.682 99.8521C545.682 128.959 533.228 155.158 513.357 173.409C571.139 188.75 614.057 240.598 615.936 302.765L616 307.02V368.467H585.277V307.02L585.214 303.323C583.307 246.873 537.891 201.456 481.442 199.549L477.746 199.487H453.167C450.742 199.615 448.297 199.704 445.831 199.704C434.029 199.704 422.705 197.656 412.196 193.897C407.146 215.253 395.695 234.163 379.986 248.481C435.032 260.651 476.21 309.75 476.21 368.467V476H138.254V368.467C138.254 309.553 179.709 260.321 235.04 248.351C219.395 234.056 207.999 215.199 202.945 193.887C192.449 197.656 181.125 199.704 169.323 199.704C167.122 199.704 164.938 199.633 162.773 199.493L138.254 199.487C80.1038 199.487 32.734 245.646 30.7855 303.323L30.7232 307.02V368.467H0L0 307.02C0 243.212 43.2236 189.501 101.987 173.569C82.003 155.319 69.4722 129.049 69.4722 99.8521C69.4722 44.7053 114.177 0 169.323 0C214.191 0 252.147 29.5946 264.736 70.3287C277.857 64.6135 292.347 61.4474 307.577 61.4474C322.812 61.4474 337.308 64.616 350.44 70.33C362.997 29.602 400.957 0 445.831 0ZM353.317 276.296L314.325 276.305C312.094 276.443 309.844 276.513 307.577 276.513C305.31 276.513 303.06 276.443 300.829 276.305L261.147 276.296C211.4 276.296 170.858 315.708 169.041 365.012L168.978 368.467V445.276H445.486V368.467C445.486 318.719 406.075 278.177 356.772 276.359L353.317 276.296ZM307.577 92.1711C265.157 92.1711 230.769 126.56 230.769 168.98C230.769 209.487 262.123 242.669 301.885 245.582H313.269C353.031 242.669 384.385 209.487 384.385 168.98C384.385 126.56 349.997 92.1711 307.577 92.1711ZM169.323 30.7237C131.145 30.7237 100.195 61.6735 100.195 99.8521C100.195 138.031 131.145 168.98 169.323 168.98C180.457 168.98 190.976 166.348 200.293 161.671C202.273 132.095 216.221 105.789 237.336 87.5571C231.557 55.2421 203.303 30.7237 169.323 30.7237ZM445.831 30.7237C411.851 30.7237 383.597 55.2422 377.795 87.5532C398.933 105.789 412.881 132.095 414.864 161.679C424.177 166.348 434.697 168.98 445.831 168.98C484.009 168.98 514.959 138.031 514.959 99.8521C514.959 61.6735 484.009 30.7237 445.831 30.7237Z" fill="#3BBBA3" fill-opacity="0.7"/>
</svg>
