<svg width="27" height="380" viewBox="0 0 27 380" fill="none" xmlns="http://www.w3.org/2000/svg">
<path d="M297.848 129.168L297.177 129.785L298.058 130.019C345.592 142.661 380.9 185.389 382.447 236.621C382.447 236.622 382.447 236.622 382.447 236.623L382.5 240.13V240.133V290.492H358.113L358.113 240.13L358.113 240.121L358.062 237.061L358.062 237.053C356.477 190.065 318.74 152.261 271.832 150.673L271.824 150.673L268.769 150.621H268.761H248.451H248.438L248.425 150.622C246.426 150.728 244.415 150.801 242.39 150.801C232.696 150.801 223.396 149.117 214.765 146.024L214.239 145.835L214.11 146.38C209.961 163.956 200.553 179.521 187.645 191.306L186.934 191.955L187.874 192.163C233.133 202.187 266.991 242.629 266.991 290.992V379.5H-11.2606V290.992C-11.2606 242.466 22.8249 201.916 68.3187 192.057L69.2635 191.852L68.5504 191.199C55.6957 179.433 46.332 163.912 42.1796 146.371L42.0507 145.827L41.5238 146.016C32.9045 149.117 23.6048 150.801 13.911 150.801C12.1036 150.801 10.3099 150.743 8.53175 150.627L8.51566 150.626H8.49951L-11.7605 150.621C-60.0816 150.621 -99.4426 189.044 -101.062 237.053L-101.062 237.061L-101.113 240.121V240.13V290.492H-125.5V240.13C-125.5 187.545 -89.9406 143.281 -41.5969 130.151L-40.72 129.913L-41.3904 129.299C-57.8042 114.284 -68.0952 92.6717 -68.0952 68.6507C-68.0952 23.2793 -31.3789 -13.5 13.911 -13.5C50.7596 -13.5 81.9337 10.847 92.2736 44.3607L92.4386 44.8953L92.9514 44.6715C103.731 39.9679 115.636 37.3619 128.15 37.3619C140.669 37.3619 152.579 39.9699 163.369 44.6727L163.882 44.8963L164.046 44.3615C174.359 10.8531 205.537 -13.5 242.39 -13.5C287.68 -13.5 324.396 23.2793 324.396 68.6507C324.396 92.5982 314.168 114.152 297.848 129.168ZM165.954 214.199H165.945L133.727 214.206H133.711L133.696 214.207C131.862 214.321 130.013 214.379 128.15 214.379C126.288 214.379 124.439 214.321 122.605 214.207L122.59 214.206H122.574L89.7857 214.199C48.4089 214.199 14.6901 247.036 13.1787 288.113L13.1786 288.122L13.1259 290.982V290.992V354.569V355.069H13.6259H242.105H242.605V354.569V290.992C242.605 249.545 209.826 215.766 168.819 214.252L168.81 214.251L165.954 214.199ZM123.411 189.774L123.429 189.776H123.447H132.854H132.872L132.89 189.774C166.005 187.345 192.117 159.662 192.117 125.87C192.117 90.4822 163.479 61.7929 128.15 61.7929C92.822 61.7929 64.1841 90.4822 64.1841 125.87C64.1841 159.662 90.2954 187.345 123.411 189.774ZM39.7263 120.267L39.9815 120.139L40.0005 119.854C41.6278 95.5111 53.0876 73.8589 70.4375 58.8519L70.6526 58.6658L70.6026 58.3858C65.7857 31.4039 42.236 10.931 13.911 10.931C-17.9123 10.931 -43.7087 36.7738 -43.7087 68.6507C-43.7087 100.528 -17.9123 126.37 13.911 126.37C23.1911 126.37 31.9602 124.172 39.7263 120.267ZM185.679 58.3823L185.629 58.6626L185.845 58.8488C203.213 73.859 214.673 95.5111 216.303 119.86L216.322 120.145L216.577 120.274C224.341 124.172 233.11 126.37 242.39 126.37C274.213 126.37 300.01 100.528 300.01 68.6507C300.01 36.7738 274.213 10.931 242.39 10.931C214.065 10.931 190.515 31.4039 185.679 58.3823Z" stroke="#63C6DC"/>
</svg>
