<svg width="27" height="392" viewBox="0 0 27 392" fill="none" xmlns="http://www.w3.org/2000/svg">
<path d="M157.91 283.958L197.835 352.272L155.538 357.378L155.327 357.403L155.199 357.574L130.114 390.908L90.5369 323.171L90.1052 322.432L89.6735 323.171L50.0984 390.908L25.0136 357.574L24.8855 357.403L24.674 357.378L-17.6225 352.272L22.2923 283.958L22.7318 283.206H21.8606H-183.5V0.5H211.5V283.206H158.342H157.471L157.91 283.958ZM40.6869 290.849L40.2286 290.39L39.9013 290.95L13.2415 336.586L12.8575 337.243L13.6132 337.334L35.1672 339.94L47.6623 356.543L48.1143 357.144L48.4935 356.495L75.0749 310.997L75.4097 310.424L74.7663 310.26C61.6352 306.922 49.9189 300.099 40.6869 290.849ZM142.487 294.683L142.184 294.164L141.729 294.557C131.85 303.094 119.645 309.068 106.177 311.431L105.469 311.555L105.831 312.175L131.719 356.495L132.098 357.144L132.55 356.543L145.045 339.94L166.599 337.334L167.355 337.243L166.971 336.585L142.487 294.683ZM192.7 19.5659V19.0659H192.2H-164.2H-164.7V19.5659V264.14V264.64L-164.2 264.64L23.1801 264.655L23.8902 264.655L23.6509 263.986C20.9305 256.385 19.45 248.205 19.45 239.683C19.45 199.442 52.4634 166.81 93.2 166.81C133.937 166.81 166.95 199.442 166.95 239.683C166.95 248.204 165.47 256.382 162.751 263.981L162.512 264.65L163.222 264.65L192.2 264.64L192.7 264.64V264.14V19.5659ZM93.2 185.376C62.8576 185.376 38.25 209.685 38.25 239.683C38.25 269.681 62.8576 293.989 93.2 293.989C123.542 293.989 148.15 269.681 148.15 239.683C148.15 209.685 123.542 185.376 93.2 185.376ZM-3.18208 166.81V185.376H-114.2V166.81H-3.18208ZM142.2 117.896V136.462H-114.2V117.896H142.2ZM142.2 68.9808V87.5467H-114.2V68.9808H142.2Z" stroke="#CA998E"/>
</svg>
