<svg width="27" height="406" viewBox="0 0 27 406" fill="none" xmlns="http://www.w3.org/2000/svg">
<path d="M110.433 282.562V282.062H109.933H75.8606H75.3606V282.562V405.55H-14.5V-42.5H7.21516L7.21206 203.093L8.16325 203.308C33.7602 149.71 80.3191 108.133 144.11 78.1422C216.5 44.1094 308.186 26.8706 396.721 25.024L397.903 24.9994L397.062 24.1684L352.37 -19.9886L367.721 -35.1619L439.289 35.5786L367.721 106.319L352.37 91.1457L396.675 47.3464L397.569 46.4632L396.313 46.4909C310.906 48.3773 222.504 65.0444 153.442 97.5131C107.369 119.173 71.2414 146.934 46.4208 181.24C21.5971 215.551 8.10211 256.384 7.2574 304.153L7.25736 304.158L7.21516 308.948V308.953V383.598V384.098H7.71516H53.1455H53.6455V383.598V260.609H132.149V383.598V384.098H132.649H178.079H178.579V383.598V204.478H257.082V383.598V384.098H257.582H303.012H303.512V383.598V148.346H382.015V383.598V384.098H382.515H438.803V405.55H360.3V170.299V169.799H359.8H325.727H325.227V170.299V405.55H235.367V226.43V225.93H234.867H200.794H200.294V226.43V405.55H110.433V282.562Z" stroke="#3BBBA3"/>
</svg>
