<svg width="27" height="357" viewBox="0 0 27 357" fill="none" xmlns="http://www.w3.org/2000/svg">
<path d="M118.9 63.3623L119.4 63.3624L235.5 63.3728V355.779H-187.5V63.3728L-71.3999 63.3624L-70.9 63.3623V62.8624V41.9152C-70.9 19.0476 -52.1462 0.5 -29 0.5H77C100.146 0.5 118.9 19.0476 118.9 41.9152V62.8624V63.3623ZM-166.628 164.446L-167.3 164.201V164.915V335.322V335.822H-166.8H214.8H215.3V335.322V164.999V164.282L214.627 164.53L59.1566 221.923L58.8298 222.043L58.8298 222.392L58.8333 271.949H-10.8334L-10.8404 221.7L-10.8404 221.35L-11.1688 221.23L-166.628 164.446ZM38.6298 188.619V188.119H38.1298H9.8596H9.3596V188.619V251.491V251.991H9.8596H38.1298H38.6298V251.491V188.619ZM-70.9 83.3305V83.3199L-71.4 83.32L-166.8 83.3305L-167.3 83.3305V83.8305V142.575V142.924L-166.972 143.044L-11.5119 199.819L-10.8405 200.064L-10.8404 199.349L-10.8334 168.161H58.8333L58.8298 200.019L58.8297 200.737L59.503 200.489L214.973 143.096L215.3 142.975V142.627V83.8305V83.3305L214.8 83.3305L119.4 83.32L118.9 83.3199V83.3305H-70.9ZM77.0182 20.4579L77.0091 20.4576H77H-29C-40.435 20.4576 -49.8115 29.206 -50.6405 40.3139L-50.6412 40.3232L-50.6415 40.3326L-50.6996 41.8967L-50.7 41.9059V41.9152V62.8624V63.3624H-50.2H98.2H98.7V62.8624V41.9152C98.7 30.598 89.8426 21.335 78.6186 20.5164L78.6095 20.5158L78.6003 20.5154L77.0182 20.4579Z" stroke="#CFA867"/>
</svg>
